<?xml version="1.0" encoding="UTF-8" standalone="no"?>
<svg
   xmlns:dc="http://purl.org/dc/elements/1.1/"
   xmlns:cc="http://creativecommons.org/ns#"
   xmlns:rdf="http://www.w3.org/1999/02/22-rdf-syntax-ns#"
   xmlns:svg="http://www.w3.org/2000/svg"
   xmlns="http://www.w3.org/2000/svg"
   id="svg8"
   version="1.1"
   viewBox="0 0 195.21294 246.17751"
   height="246.17751mm"
   width="195.21294mm">
  <defs
     id="defs2" />
  <metadata
     id="metadata5">
    <rdf:RDF>
      <cc:Work
         rdf:about="">
        <dc:format>image/svg+xml</dc:format>
        <dc:type
           rdf:resource="http://purl.org/dc/dcmitype/StillImage" />
        <dc:title></dc:title>
      </cc:Work>
    </rdf:RDF>
  </metadata>
  <g
     transform="translate(-7.3935323,-25.411246)"
     id="layer1">
    <path
       id="path842"
       d="m 7.4311596,271.2252 c -0.10243,-0.26694 0.0106,-0.80196 0.26212,-1.24013 0.30131,-0.525 0.44228,-1.37943 0.44228,-2.68065 0,-1.07535 0.13162,-2.04163 0.3012,-2.21121 0.33023,-0.33023 0.53153,-2.42449 0.27368,-2.84734 -0.25721,-0.42181 -0.24632,-7.64058 0.012,-7.98086 0.12859,-0.16937 0.30244,-1.12663 0.38633,-2.12726 0.12692,-1.51389 0.0611,-1.99863 -0.39236,-2.88737 l -0.54487,-1.06805 0.66591,-1.11668 c 0.70415,-1.18081 0.72572,-1.954 0.24449,-8.76458 l -0.12152,-1.71979 0.40549,1.45521 c 0.22302,0.80037 0.45815,1.87193 0.52252,2.38125 0.0644,0.50932 0.3032104,2.03069 0.5307604,3.38081 l 0.41373,2.45476 -0.68724,0.90102 c -0.6922104,0.90754 -0.9214104,2.34787 -0.4226604,2.65612 0.3560704,0.22006 0.3365604,2.95211 -0.0293,4.10279 -0.49256,1.54915 -0.76522,6.57968 -0.44089,8.13419 0.27337,1.31027 0.73665,1.76358 1.1382704,1.11376 0.0936,-0.15142 0.60662,-0.55414 1.14009,-0.89493 0.53347,-0.3408 1.66837,-1.23497 2.52201,-1.98705 0.85363,-0.75209 1.61617,-1.30331 1.69453,-1.22494 0.0784,0.0784 -0.43586,0.64993 -1.14272,1.27016 -0.70687,0.62023 -1.58847,1.46708 -1.95913,1.88189 -0.37065,0.41481 -1.00133,0.92388 -1.40151,1.13127 -0.40018,0.20739 -0.72761,0.58986 -0.72761,0.84994 0,0.26008 -0.35718,0.81508 -0.7937504,1.23334 -0.7195,0.68933 -0.79375,0.91832 -0.79375,2.44814 0,0.92823 -0.12446,1.92025 -0.27659,2.20451 -0.26003,0.48588 -0.20855,0.5063 0.8599,0.34108 0.6250604,-0.0967 1.3890704,-0.26875 1.6977804,-0.38243 0.64244,-0.2366 2.53994,0.32678 2.69803,0.80104 0.0688,0.2064 0.27646,0.15143 0.62726,-0.16604 0.43254,-0.39144 0.9105,-0.46151 2.7281,-0.39994 l 2.20369,0.0746 0.43767,-1.53446 c 0.24072,-0.84395 0.98104,-2.90368 1.64516,-4.57717 1.86026,-4.68761 2.54458,-4.77115 0.78939,-0.0964 -0.62725,1.67061 -1.33196,4.02338 -1.69311,5.65262 -0.28139,1.26943 -0.54385,1.38339 -2.73866,1.1891 -1.64098,-0.14526 -2.19656,-0.0941 -2.89344,0.26623 -0.81287,0.42036 -0.92251,0.41895 -1.90573,-0.0244 -1.05237,-0.47455 -1.72969,-0.42831 -4.9045804,0.33481 -0.4121,0.099 -0.64778,-5.3e-4 -0.77302,-0.327 z m 29.7199604,0.14151 c -0.99461,-0.11986 -1.95933,-0.27584 -2.14381,-0.34663 -0.18447,-0.0708 -0.48371,-0.88333 -0.66497,-1.80563 -0.18126,-0.9223 -0.48451,-2.15317 -0.67389,-2.73525 -0.4347,-1.33611 -0.78196,-3.77368 -0.49759,-3.49291 0.2221,0.2193 0.41325,0.82871 1.50612,4.8018 0.63685,2.31524 0.67359,2.37513 1.67309,2.72737 0.62901,0.22166 1.53062,0.30305 2.34487,0.21165 1.20834,-0.13563 5.28029,-0.4135 6.65359,-0.45404 0.6764,-0.02 0.88703,-0.79781 0.88703,-3.27573 0,-0.91557 0.0893,-1.70435 0.19844,-1.75286 0.26314,-0.11695 1.31655,-3.24869 1.54261,-4.58611 0.25883,-1.53126 0.62214,-2.07427 0.63216,-0.94483 0.008,0.93463 -0.31964,2.20269 -0.92856,3.59066 -0.27948,0.63703 -0.91935,5.49215 -0.9162,6.95186 10e-4,0.56055 -1.33066,0.90972 -3.70345,0.97093 -1.23692,0.0319 -2.66567,0.12542 -3.175,0.20783 -0.50932,0.0824 -1.73982,0.0517 -2.73444,-0.0681 z m -10.09785,-0.12659 c -0.14552,-0.0507 -1.30638,-0.17101 -2.57969,-0.26745 -2.61762,-0.19826 -2.72903,-0.33476 -1.86731,-2.2879 0.63093,-1.43002 1.19929,-1.36751 0.70156,0.0771 -0.20695,0.60066 -0.31921,1.14916 -0.24948,1.21888 0.0697,0.0697 1.44778,0.16691 3.06234,0.21594 1.61456,0.049 3.15649,0.15929 3.42652,0.24499 0.27003,0.0857 1.00998,-0.0249 1.64435,-0.24586 1.5023,-0.52319 1.90566,-0.51076 2.43586,0.0751 0.58622,0.64776 0.34216,0.82092 -0.79545,0.56434 -0.62293,-0.14049 -1.3573,-0.0862 -2.16956,0.16028 -1.12812,0.34238 -2.96957,0.46714 -3.60914,0.24452 z m 173.78685,-0.46144 c -0.11435,-0.1819 -0.21422,-1.77521 -0.22192,-3.54069 -0.01,-2.25564 -0.11806,-3.33535 -0.36401,-3.63169 -0.21628,-0.26061 -0.31308,-0.88599 -0.25336,-1.63689 0.0895,-1.12583 0.0137,-1.30167 -1.03119,-2.39222 -1.52948,-1.59625 -1.53241,-2.46119 -0.003,-0.98919 0.61847,0.59539 1.38972,1.21826 1.71389,1.38416 0.51926,0.26573 0.57015,0.44216 0.42756,1.48242 -0.10713,0.78159 -0.0482,1.31769 0.17423,1.58573 0.24789,0.29868 0.28785,0.99928 0.15229,2.66993 -0.10459,1.28908 -0.0789,2.39869 0.0596,2.57531 0.29564,0.37703 0.55614,2.03558 0.3916,2.49313 -0.0654,0.1819 -0.28059,0.33073 -0.47815,0.33073 -0.19757,0 -0.45278,-0.14883 -0.56713,-0.33073 z M 47.21204,270.67477 c -0.11423,-0.11422 0.36348,-0.39134 1.06157,-0.61581 1.34354,-0.43201 6.09479,-0.52825 7.65543,-0.15507 0.59187,0.14152 1.16157,0.0518 1.98603,-0.31294 1.13299,-0.50118 1.17972,-0.57308 2.33822,-3.59751 0.65017,-1.69736 1.26359,-3.08612 1.36315,-3.08612 0.16996,0 -0.0383,0.73532 -1.31151,4.63021 l -0.51894,1.5875 1.1992,0.0822 c 0.65956,0.0452 1.28298,-0.0143 1.38537,-0.13229 0.1024,-0.11794 0.39446,-0.89883 0.64902,-1.7353 0.25456,-0.83648 0.58365,-1.59553 0.7313,-1.68678 0.16189,-0.10005 0.20859,0.031 0.11765,0.33024 -0.19349,0.63659 -0.68471,2.81629 -0.69316,3.07584 -0.004,0.10914 0.29501,0.19843 0.66348,0.19843 0.36848,0 1.0955,0.17781 1.61561,0.39512 0.52011,0.21732 1.05207,0.32935 1.18213,0.24897 0.13006,-0.0804 0.23647,-0.0328 0.23647,0.10574 0,0.43991 -0.57662,0.48386 -4.30749,0.32827 -2.48841,-0.10378 -3.91652,-0.0534 -4.49792,0.15855 -1.07239,0.391 -3.17232,0.43812 -3.5312,0.0792 -0.64565,-0.64565 -3.5191,-0.58119 -6.45203,0.14473 -0.36558,0.0905 -0.75815,0.0711 -0.87238,-0.0432 z m 61.61741,-0.0623 c -0.1009,-0.16326 -0.52686,-0.29683 -0.94658,-0.29683 -0.83523,0 -1.58689,-0.80773 -1.58689,-1.70524 0,-0.49072 0.0318,-0.48379 0.43743,0.0953 l 0.43743,0.62452 0.5071,-1.3594 c 0.6287,-1.68536 1.02331,-1.77282 0.67722,-0.15009 -0.14186,0.66512 -0.1893,1.27794 -0.10542,1.36182 0.18734,0.18734 5.71824,0.69298 5.87419,0.53703 0.0616,-0.0616 -0.0225,-0.49745 -0.18672,-0.96863 -0.20228,-0.5803 -0.21188,-0.94346 -0.0297,-1.1256 0.18213,-0.18214 0.37584,0.0591 0.60037,0.74765 0.18232,0.5591 0.45961,1.09937 0.61621,1.2006 0.49746,0.32156 -0.0584,0.56961 -1.75553,0.78336 -0.90672,0.1142 -2.25767,0.28518 -3.0021,0.37996 -0.88941,0.11325 -1.41642,0.0706 -1.53697,-0.1245 z m 26.35903,-0.0852 c -0.37291,-0.37291 -0.41965,-1.17564 -0.0806,-1.38515 0.13027,-0.0805 0.30513,0.0315 0.38857,0.24897 0.0947,0.24671 0.50043,0.39535 1.07926,0.39535 0.76301,0 1.00036,-0.1408 1.33802,-0.79375 0.22575,-0.43656 0.52646,-0.79375 0.66825,-0.79375 0.33349,0 0.33021,0.0266 -0.14264,1.15832 -0.30429,0.72826 -0.55463,0.95835 -1.04272,0.95835 -0.35326,0 -0.71587,0.11906 -0.80581,0.26458 -0.22417,0.36272 -1.01656,0.33282 -1.40229,-0.0529 z m 5.43718,-0.13313 c -1.12778,-0.21894 -2.05052,-0.50477 -2.05052,-0.63518 0,-0.28963 0.078,-0.28907 3.03641,0.0221 2.23445,0.235 2.41006,0.2168 2.96841,-0.30774 0.3264,-0.30664 0.53209,-0.65682 0.45709,-0.77818 -0.075,-0.12137 0.0132,-0.49101 0.19595,-0.82144 0.18278,-0.33043 0.30544,-0.73519 0.27258,-0.89947 -0.0329,-0.16428 0.25791,-0.6607 0.64616,-1.10316 0.61606,-0.70208 0.75466,-0.75574 1.08885,-0.42154 0.29884,0.29884 0.31406,0.46593 0.0693,0.76084 -0.1725,0.20785 -0.22996,0.5133 -0.1277,0.67876 0.10593,0.17139 -0.29053,0.78634 -0.92132,1.42907 l -1.10726,1.12822 2.46545,0.18855 c 1.356,0.1037 2.88218,0.18164 3.3915,0.1732 1.01794,-0.0169 1.82557,0.35751 1.49177,0.69151 -0.23266,0.2328 -1.99017,0.25911 -4.66677,0.0698 -0.94589,-0.0669 -2.4937,-0.0441 -3.43958,0.0505 -1.12475,0.11259 -2.42927,0.0344 -3.77032,-0.22592 z m 27.31823,0.0538 c -0.74728,-0.42719 -2.38125,-0.52778 -2.38125,-0.14661 0,0.13765 -0.5521,0.21775 -1.2269,0.178 -1.17233,-0.0691 -1.52877,-0.3009 -2.17018,-1.41153 -0.24188,-0.41884 -1.36542,-0.12865 -1.36542,0.35266 0,0.20131 -0.17859,0.36602 -0.39687,0.36602 -0.52964,0 -0.50499,-0.63953 0.0421,-1.09208 0.51612,-0.42694 1.67137,-2.81066 1.67511,-3.45637 0.001,-0.24607 0.13491,-0.52919 0.29665,-0.62915 0.20981,-0.12967 0.24077,0.20574 0.10805,1.17072 -0.15753,1.14534 -0.0934,1.50504 0.41903,2.34894 0.33277,0.54806 0.77843,1.10179 0.99035,1.23049 0.21192,0.12871 2.6368,0.27184 5.38862,0.31808 4.90675,0.0824 6.02905,0.19792 6.02905,0.6204 0,0.61205 -6.37441,0.74148 -7.40834,0.15043 z m 24.07709,0.11982 c -1.38245,-0.0879 -2.63261,-0.20055 -2.77813,-0.25045 -0.14552,-0.0499 -0.71305,0.002 -1.26118,0.11637 -1.04051,0.21622 -2.57528,-0.20792 -2.57528,-0.7117 0,-0.17485 -0.1124,-0.17363 -0.33073,0.004 -0.1819,0.14767 -1.69994,0.3352 -3.37343,0.41673 -1.67349,0.0815 -3.42966,0.22829 -3.90261,0.32614 -0.78375,0.16215 -0.85712,0.12226 -0.82859,-0.45048 0.0172,-0.34561 0.11145,-0.98557 0.20941,-1.42213 l 0.17811,-0.79375 0.34013,0.61598 c 0.18707,0.3388 0.27737,0.77953 0.20067,0.97941 -0.11213,0.2922 0.20792,0.34201 1.63327,0.25419 3.91426,-0.2412 4.81544,-0.41479 4.81544,-0.92759 0,-0.79582 -1.02161,-2.92699 -1.86183,-3.88395 -0.85227,-0.97068 -2.48952,-4.01969 -2.27414,-4.23507 0.28126,-0.28126 0.66205,0.23787 1.13096,1.54185 0.33204,0.92337 0.86763,1.69213 1.6725,2.4006 0.65122,0.57323 1.32299,1.3727 1.49282,1.77661 0.16983,0.4039 0.85247,1.29379 1.51698,1.97751 1.0263,1.056 1.35944,1.2421 2.21285,1.23622 2.08802,-0.0144 7.50573,0.19391 9.83165,0.378 1.8034,0.14274 2.41779,0.28538 2.41779,0.56134 0,0.39639 -3.12736,0.42984 -8.46666,0.0905 z m -123.41533,-0.2314 c -0.21472,-0.34743 -1.20344,-5.52441 -1.19937,-6.27997 0.006,-1.14358 0.41868,-0.30807 0.93147,1.88656 0.81638,3.49399 0.85986,3.58031 1.79698,3.56735 0.46166,-0.006 1.29105,-0.17274 1.8431,-0.36967 0.7317,-0.26101 1.59219,-0.30497 3.175,-0.1622 2.58369,0.23305 4.83934,-0.21933 5.51929,-1.10692 0.24068,-0.31417 0.50571,-0.99719 0.58896,-1.51783 0.16647,-1.04103 0.80868,-2.09619 1.09907,-1.8058 0.10148,0.10149 0.0517,0.56555 -0.11066,1.03125 -0.67713,1.94241 -0.53512,2.14506 2.09836,2.99438 1.31552,0.42426 2.45968,0.88112 2.54256,1.01524 0.35483,0.57412 -0.4071,0.65561 -1.7351,0.18558 -0.78607,-0.27822 -1.97669,-0.52346 -2.64583,-0.54499 -2.09759,-0.0675 -9.30862,0.55042 -9.8586,0.84476 -0.60872,0.32578 -3.87509,0.53754 -4.04523,0.26226 z m 51.14937,-0.26 c -1.9129,-0.29653 -2.94581,-0.35216 -3.22846,-0.17388 -0.55849,0.35229 -0.90543,-0.0378 -0.42525,-0.47807 0.301,-0.27601 1.04864,-0.30248 3.55613,-0.12591 1.74625,0.12297 3.89405,0.21695 4.77288,0.20884 1.86869,-0.0172 3.37448,0.43004 2.75878,0.81946 -0.57965,0.3666 -4.25158,0.2429 -7.43408,-0.25044 z m 8.11002,0.24823 c -0.13406,-0.2169 0.75242,-0.38081 3.78202,-0.69929 1.68856,-0.1775 2.43017,-0.58999 2.43017,-1.35167 0,-0.22921 0.41672,-1.04456 0.92604,-1.81188 0.50932,-0.76733 0.92604,-1.47525 0.92604,-1.57316 0,-0.0979 0.23813,-0.48074 0.52917,-0.85074 0.35215,-0.44769 0.52916,-0.53886 0.52916,-0.27256 0,0.22008 -0.17859,0.54838 -0.39687,0.72953 -0.21828,0.18116 -0.39688,0.52912 -0.39688,0.77323 0,0.24412 -0.1028,0.55697 -0.22846,0.69521 -0.12565,0.13825 -0.55863,1.10806 -0.96217,2.15514 -0.40355,1.04709 -0.92582,1.97851 -1.1606,2.06982 -0.66518,0.25871 -5.8292,0.37651 -5.97762,0.13637 z m 25.59292,-0.0673 c -0.78615,-0.37914 -0.76442,-0.78793 0.0313,-0.58823 0.73559,0.18462 1.61198,-0.74727 1.88903,-2.00866 0.2311,-1.0522 0.65939,-1.26094 0.65939,-0.32137 0,1.14088 0.55952,1.76658 1.34308,1.50194 0.35271,-0.11912 0.78559,-0.18907 0.96194,-0.15543 0.18418,0.0351 0.5063,-0.59026 0.7569,-1.46948 0.23994,-0.84185 0.54213,-1.64375 0.67154,-1.78199 0.34938,-0.37323 0.26121,2.4691 -0.11037,3.55815 -0.31272,0.91656 -0.33232,0.92627 -2.01569,0.99911 -1.06566,0.0461 -1.76971,-0.0394 -1.887,-0.22918 -0.12862,-0.20811 -0.36226,-0.12758 -0.7475,0.25767 -0.62827,0.62826 -0.71483,0.6415 -1.55258,0.23747 z m -59.4651,-0.2192 c -0.43657,-0.10221 -1.95461,-0.12321 -3.37344,-0.0467 l -2.57969,0.13917 0.006,-0.63509 c 0.003,-0.34929 0.23872,-0.93274 0.52329,-1.29654 0.28457,-0.3638 0.52005,-0.87237 0.52329,-1.13015 0.007,-0.54969 1.29163,-2.57402 1.63358,-2.57402 0.40933,0 -0.0633,1.40382 -0.99323,2.9503 -0.49448,0.8223 -0.89905,1.5766 -0.89905,1.67622 0,0.0996 0.88663,0.0981 1.9703,-0.003 1.21033,-0.11342 2.46048,-0.0694 3.24114,0.11401 2.18601,0.5137 6.88788,0.51903 8.54647,0.01 1.32645,-0.40734 1.52878,-0.57598 2.27987,-1.90021 0.45334,-0.79927 1.16771,-2.17744 1.5875,-3.06262 0.76242,-1.60764 1.34385,-2.16551 1.08463,-1.04066 -0.14287,0.61995 -1.1445,3.32755 -1.85207,5.0065 -0.70561,1.67428 -1.13481,1.80349 -6.29959,1.89649 -2.53282,0.0456 -4.96232,-8e-4 -5.39888,-0.10293 z m 44.58228,-2.76517 c 0,-0.21828 0.11533,-0.39688 0.25628,-0.39688 0.14096,0 0.18775,0.1786 0.10399,0.39688 -0.0838,0.21828 -0.19909,0.39687 -0.25628,0.39687 -0.0572,0 -0.10399,-0.17859 -0.10399,-0.39687 z M 23.48981,266.82554 c -0.005,-0.24607 0.11857,-0.52588 0.27377,-0.6218 0.46635,-0.28822 0.53174,0.0156 0.12037,0.55936 -0.33866,0.44764 -0.38675,0.45526 -0.39414,0.0624 z m 85.18742,-1.52135 c 0,-0.13693 0.11906,-0.32255 0.26458,-0.41249 0.14552,-0.0899 0.26458,0.0221 0.26458,0.24897 0,0.22687 -0.11906,0.41249 -0.26458,0.41249 -0.14552,0 -0.26458,-0.11204 -0.26458,-0.24897 z m -84.66667,-0.66146 c 0,-0.22687 0.11907,-0.41249 0.26459,-0.41249 0.14552,0 0.26458,0.11204 0.26458,0.24897 0,0.13693 -0.11906,0.32255 -0.26458,0.41249 -0.14552,0.0899 -0.26459,-0.0221 -0.26459,-0.24897 z m 65.75857,-0.34634 c 0.10918,-0.25466 0.36539,-0.93927 0.56935,-1.52136 0.432,-1.23289 1.29059,-2.45198 1.5466,-2.19597 0.0976,0.0976 -0.004,0.43687 -0.22653,0.75403 -0.22214,0.31716 -0.34467,0.73101 -0.27227,0.91967 0.14984,0.39048 -1.1654,2.50665 -1.55793,2.50665 -0.1447,0 -0.17067,-0.20308 -0.0592,-0.46302 z M 82.124,264.02617 c -0.0694,-0.11224 0.21317,-1.0761 0.62785,-2.14193 0.41468,-1.06582 0.69733,-2.08546 0.6281,-2.26586 -0.1436,-0.37421 0.82683,-1.6887 1.06883,-1.4478 0.0873,0.0869 -0.0892,0.47328 -0.39225,0.85856 -0.45444,0.57773 -0.4725,0.67038 -0.10307,0.52861 0.41232,-0.15822 0.41532,-0.12128 0.0377,0.46436 -0.22562,0.34994 -0.49448,1.11251 -0.59745,1.69459 -0.17787,1.00547 -0.79809,2.51354 -1.03373,2.51354 -0.0604,0 -0.16663,-0.0918 -0.236,-0.20407 z m 80.38587,-0.52353 c 0.0983,-0.25466 0.31868,-0.90951 0.4896,-1.45521 0.29837,-0.95263 0.71109,-1.34167 0.71109,-0.6703 0,0.59737 -0.86352,2.58853 -1.12259,2.58853 -0.14132,0 -0.17647,-0.20836 -0.0781,-0.46302 z m -95.46042,-0.50712 c -0.097,-0.097 -0.16672,-0.60303 -0.1549,-1.12448 l 0.0215,-0.94809 0.36345,0.79375 c 0.1999,0.43656 0.36883,0.94258 0.37539,1.12448 0.0129,0.35626 -0.31892,0.44084 -0.60543,0.15434 z m 70.20278,-0.56292 c 0,-0.13983 0.19232,-0.41385 0.42739,-0.60893 0.36976,-0.30688 0.41436,-0.28745 0.33073,0.14411 -0.0996,0.51425 -0.75812,0.91797 -0.75812,0.46482 z m -70.74958,-2.59444 c -0.0942,-0.24539 -0.11168,-0.50569 -0.0389,-0.57845 0.0728,-0.0728 0.20933,0.0685 0.3035,0.31386 0.0942,0.24539 0.11167,0.50569 0.0389,0.57845 -0.0728,0.0728 -0.20934,-0.0685 -0.3035,-0.31386 z M 23.4814,259.6654 c 0,-0.57056 0.55638,-1.78516 0.81775,-1.78516 0.112,0 0.095,0.37892 -0.0378,0.84205 -0.28767,1.00302 -0.7799,1.59827 -0.7799,0.94311 z m 176.84519,-1.14409 c -0.0941,-0.37501 -0.0442,-0.94056 0.11099,-1.25677 0.31198,-0.63578 0.24374,-4.33477 -0.13103,-7.10294 -0.18637,-1.37663 -0.38216,-1.88464 -0.88886,-2.30631 -0.35741,-0.29743 -0.7689,-0.54468 -0.91442,-0.54945 -0.46254,-0.0152 -3.00159,1.02282 -5.17464,2.11541 -2.00913,1.01017 -2.63329,1.08155 -1.63838,0.18736 0.60145,-0.54057 5.00579,-2.84087 5.43935,-2.84087 0.18325,0 0.98233,-0.41822 1.77574,-0.92939 l 1.44256,-0.92939 0.0238,-4.85109 0.0238,-4.8511 -1.29891,-0.50337 c -0.7144,-0.27685 -1.4226,-0.6522 -1.57378,-0.8341 -0.34958,-0.42063 -0.21712,-0.41545 0.8821,0.0344 1.98272,0.81153 2.08283,0.80715 2.08283,-0.0913 0,-0.45104 0.18084,-1.25288 0.40186,-1.78187 0.36226,-0.867 0.35983,-1.07184 -0.0246,-2.07853 -0.50571,-1.32416 -0.57744,-2.5392 -0.29003,-4.91216 0.21067,-1.73935 0.20737,-1.75269 -0.46668,-1.88154 -0.37337,-0.0714 -0.67886,-0.0243 -0.67886,0.10467 0,0.33862 -1.29695,0.81478 -2.42917,0.89185 -0.53568,0.0365 -1.35764,0.25771 -1.82659,0.49165 -0.46894,0.23394 -1.04269,0.42608 -1.27499,0.42698 -0.23231,7.9e-4 -0.76341,0.17949 -1.18022,0.39687 -0.81778,0.4265 -1.49213,0.51561 -1.48944,0.19681 0.002,-0.25835 1.52574,-1.12448 1.97801,-1.12448 0.19211,0 0.59517,-0.41672 0.89568,-0.92604 0.3005,-0.50932 0.68314,-0.92604 0.85031,-0.92604 0.19162,0 0.13821,0.25292 -0.14451,0.68441 -0.24664,0.37643 -0.37816,0.7547 -0.29225,0.84061 0.23141,0.23141 1.73817,-1.29404 1.73817,-1.75973 0,-0.31134 0.0706,-0.32974 0.3175,-0.0828 0.24694,0.24694 0.24694,0.38805 0,0.635 -0.63584,0.63583 -0.29374,0.7621 0.67469,0.24901 0.5457,-0.28912 1.4089,-0.59359 1.91823,-0.6766 0.50932,-0.083 1.24401,-0.22333 1.63265,-0.31183 l 0.70662,-0.16091 0.0871,2.16428 c 0.0479,1.19036 0.009,2.37441 -0.0874,2.63124 -0.19945,0.53347 0.54453,3.46022 0.87959,3.46022 0.12157,0 0.22104,0.35719 0.22104,0.79375 0,0.43657 -0.10921,0.79375 -0.2427,0.79375 -0.13348,0 -0.44232,0.52271 -0.68631,1.16158 -0.34138,0.89389 -0.37628,1.2874 -0.15142,1.70755 0.22469,0.41985 0.1918,0.79687 -0.14237,1.63205 -0.48476,1.21154 -0.55425,3.20461 -0.23441,6.72328 l 0.2146,2.36091 -0.73274,0.58426 -0.73274,0.58427 0.57226,0.77402 c 0.46888,0.63418 0.59503,1.24935 0.69822,3.40483 0.0693,1.44694 0.14323,2.92845 0.16435,3.29225 0.11858,2.04337 -0.17325,5.02709 -0.4917,5.02709 -0.18789,0 -0.41863,-0.30683 -0.51276,-0.68185 z m -21.68288,-0.49577 c -0.23368,-0.35665 -0.38392,-0.86114 -0.33385,-1.12111 0.0688,-0.35751 0.23532,-0.22809 0.68336,0.53129 0.66829,1.13266 0.69676,1.23827 0.33386,1.23827 -0.14217,0 -0.44968,-0.2918 -0.68337,-0.64845 z M 83.55023,257.6818 c 0.0152,-0.35862 0.77635,-1.22166 0.93633,-1.06168 0.20914,0.20915 -0.36589,1.26012 -0.68947,1.26012 -0.1404,0 -0.25149,-0.0893 -0.24686,-0.19844 z m 112.66724,-0.57253 c -0.34354,-0.27852 -0.54565,-0.58569 -0.44914,-0.6826 0.20836,-0.20922 1.54431,0.61679 1.54431,0.95483 0,0.37708 -0.42438,0.27158 -1.09517,-0.27223 z M 12.01099,236.56257 c -1.19956,-1.18056 -1.64211,-1.45703 -2.2235104,-1.38906 l -0.72587,0.0849 -0.0293,-2.38125 c -0.0169,-1.37217 0.12475,-2.86607 0.33424,-3.52532 0.19994,-0.62924 0.293,-1.25819 0.20679,-1.39768 -0.0862,-0.13949 -0.26023,-0.61445 -0.38671,-1.05547 -0.19847,-0.69202 -0.12313,-0.91364 0.55011,-1.61812 0.9505404,-0.99464 0.9780304,-1.26696 0.12792,-1.26696 -0.67699,0 -1.19867,-0.65297 -1.20156,-1.50396 -9e-4,-0.26423 -0.17949,-0.82144 -0.39687,-1.23826 -0.57095,-1.09473 -0.4886,-1.79367 0.28389,-2.40963 0.60347,-0.48119 0.64705,-0.62591 0.39119,-1.29889 -0.20029,-0.52681 -0.20394,-0.8586 -0.012,-1.08988 0.18943,-0.22824 0.19121,-0.55543 0.006,-1.04338 -0.33993,-0.8941 -0.34299,-2.53573 -0.006,-3.05766 0.18479,-0.28593 0.25762,-0.0323 0.26054,0.90725 0.004,1.38953 0.28389,2.49137 1.1025904,4.3455 0.3836,0.86876 0.43554,1.23969 0.21139,1.50977 -0.16344,0.19692 -0.22567,0.47371 -0.1383,0.61507 0.0874,0.14137 -0.11938,0.58049 -0.4594404,0.97583 -0.54926,0.63854 -0.58789,0.83269 -0.34599,1.73894 0.14976,0.56107 0.41361,1.02014 0.5863404,1.02014 0.17273,0 1.42806,-0.57851 2.78961,-1.28558 1.36156,-0.70706 2.74345,-1.36993 3.07087,-1.47304 0.89925,-0.28317 0.71338,0.21947 -0.26458,0.71551 -2.28583,1.1594 -4.00544,2.21931 -4.11012,2.53336 -0.0858,0.25736 0.10229,0.23468 0.72524,-0.0875 1.17021,-0.60514 1.67954,-0.33898 0.5406,0.28251 -0.50932,0.27793 -0.92604,0.64596 -0.92604,0.81784 0,0.17189 -0.4077,0.58861 -0.906,0.92604 l -0.90601,0.61353 -0.0645,2.66526 c -0.0355,1.4659 0.0365,2.8287 0.15994,3.02845 0.12703,0.20554 0.11218,0.573 -0.0342,0.84654 -0.20975,0.39193 -0.0436,0.69872 0.87836,1.62206 1.47166,1.47383 2.95358,3.34706 2.64789,3.34706 -0.13136,0 -0.91276,-0.66326 -1.73646,-1.47392 z m 186.29384,0.2332 c -0.25466,-0.0666 -0.46302,-0.23961 -0.46302,-0.38458 0,-0.37416 1.12675,-0.16259 1.2581,0.23624 0.11167,0.33911 0.009,0.35836 -0.79508,0.14834 z m -3.77031,-1.14053 c -0.0899,-0.14552 0.0886,-0.26458 0.39687,-0.26458 0.30822,0 0.48682,0.11906 0.39688,0.26458 -0.0899,0.14552 -0.26853,0.26458 -0.39688,0.26458 -0.12834,0 -0.30693,-0.11906 -0.39687,-0.26458 z m -5.84213,-8.6968 c 0.21037,-0.34037 1.73212,-0.92536 1.91957,-0.73792 0.3247,0.32471 -0.52916,0.96805 -1.28483,0.96805 -0.42733,0 -0.71296,-0.10356 -0.63474,-0.23013 z m 11.86288,-7.47616 c -0.17719,-0.74596 -0.25235,-1.46928 -0.167,-1.60738 0.0854,-0.13809 0.1522,-1.46252 0.14856,-2.94317 -0.0103,-4.18107 0.0267,-3.94197 -0.56096,-3.62745 -0.28147,0.15064 -0.73356,0.27389 -1.00464,0.27389 -0.27107,0 -0.96351,0.48634 -1.53874,1.08075 -0.88589,0.91542 -2.66012,2.09425 -3.15201,2.09425 -0.46195,0 0.0145,-0.46306 0.89257,-0.86748 0.56197,-0.25883 1.4221,-0.89418 1.91141,-1.4119 0.4893,-0.51772 1.35857,-1.29153 1.9317,-1.71958 1.42007,-1.06061 1.7931,-2.17816 1.97701,-5.92292 0.0858,-1.74625 0.24608,-3.31384 0.35626,-3.48352 0.11018,-0.16969 0.0669,-0.64594 -0.0961,-1.05834 -0.16303,-0.41239 -0.3941,-1.67417 -0.51349,-2.80395 -0.1194,-1.12978 -0.40359,-2.42799 -0.63153,-2.88492 -0.55584,-1.1142 -0.5366,-1.20189 0.36616,-1.66872 1.025,-0.53005 1.24985,-0.51015 0.72973,0.0646 -0.33821,0.37372 -0.37447,0.68085 -0.17961,1.52136 0.13428,0.57921 0.24699,1.50698 0.25046,2.06172 0.007,1.16583 0.74987,3.62159 1.0951,3.62159 0.40298,0 0.25509,1.64613 -0.17623,1.96152 -0.59636,0.43607 -1.12298,3.7262 -0.70385,4.39734 0.42757,0.68464 0.40406,1.44325 -0.0733,2.36642 -0.32908,0.63636 -0.34601,1.11652 -0.10304,2.92192 0.16102,1.19651 0.20828,2.94626 0.10592,3.92172 -0.10165,0.96871 -0.17119,2.50543 -0.15453,3.41494 0.0167,0.9095 -0.0637,1.65364 -0.17869,1.65364 -0.11494,0 -0.35397,-0.61033 -0.53117,-1.3563 z m -183.15929,0.0387 c 0,-0.33858 2.06431,-1.38984 2.46615,-1.25589 0.17047,0.0568 -0.19325,0.42097 -0.80826,0.80921 -1.18047,0.74519 -1.65789,0.87383 -1.65789,0.44668 z m -8.2005704,-9.06735 c 0.0175,-0.76399 -0.1505,-2.2225 -0.37339,-3.24115 -0.36641,-1.67455 -0.36496,-2.0382 0.0151,-3.79373 0.28139,-1.29981 0.35492,-2.34936 0.22245,-3.175 -0.20379,-1.27011 -0.17128,-11.04832 0.0507,-15.23417 0.10401,-1.96184 0.0548,-2.39851 -0.29249,-2.59284 -0.22966,-0.12852 -0.41756,-0.41054 -0.41756,-0.62671 0,-0.58778 0.80168,-1.69734 1.22635,-1.69734 0.5796304,0 5.0167404,2.1964 4.6703704,2.31186 -0.16948,0.0565 -1.13905,-0.26197 -2.1546,-0.7077 -2.1552304,-0.94594 -2.9483704,-1.03031 -2.9483704,-0.31364 0,0.27322 0.17859,0.64499 0.39687,0.82615 0.21864,0.18145 0.39754,0.76041 0.39835,1.28916 8.2e-4,0.52789 0.1249904,1.40454 0.2759604,1.94813 0.19166,0.69013 0.18956,1.14701 -0.007,1.51423 -0.5937404,1.1094 -0.8352204,3.48725 -0.8133804,8.0091 0.023,4.76259 0.25813,6.32049 0.8780304,5.81752 0.30389,-0.24656 0.69089,-0.20901 3.83208,0.37185 0.32742,0.0606 0.59531,0.22792 0.59531,0.37194 0,0.23925 -2.07605,0.15177 -3.59919,-0.15166 -0.49613,-0.0988 -0.61939,0.12729 -1.13663,2.08524 -0.5048504,1.91108 -0.5386604,2.34829 -0.2605004,3.36873 0.3667704,1.34551 0.4335804,3.22262 0.15238,4.28149 -0.32454,1.22208 -0.74503,0.83078 -0.71079,-0.66146 z M 200.89732,190.43221 c -0.24315,-0.39342 -0.20763,-4.99714 0.0417,-5.4005 0.0976,-0.15797 0.15398,-1.12551 0.1252,-2.15008 -0.0583,-2.07603 0.20402,-3.35775 0.72257,-3.5306 0.2634,-0.0878 0.29481,0.0945 0.13378,0.77651 -0.11574,0.49019 -0.18601,1.88889 -0.15616,3.10823 0.033,1.3486 -0.0638,2.3592 -0.24708,2.58008 -0.30195,0.36383 -0.21347,2.73501 0.13228,3.54491 0.22822,0.5346 -0.46969,1.52865 -0.75225,1.07145 z m -10.86072,-9.78052 c 1.45521,-0.6919 3.39236,-1.53288 4.30477,-1.86885 1.05172,-0.38726 1.90873,-0.91306 2.34139,-1.43651 0.37535,-0.45411 1.34142,-1.12691 2.14682,-1.49511 l 1.46437,-0.66945 0.0627,-1.60431 c 0.0345,-0.88236 0.20844,-2.04595 0.38659,-2.58574 0.36937,-1.11921 0.17791,-2.2267 -0.46639,-2.69783 -0.41005,-0.29983 -0.40884,-0.38794 0.0175,-1.28208 0.51141,-1.07246 0.58808,-1.88879 0.1999,-2.1287 -0.14187,-0.0877 -0.19454,-0.66025 -0.11704,-1.27239 0.11506,-0.90892 0.029,-1.24027 -0.46966,-1.80736 -0.92991,-1.05758 -3.82947,-3.3508 -4.97703,-3.93624 -1.3322,-0.67964 -1.683,-1.20401 -0.63393,-0.94759 1.41274,0.34531 3.60175,1.46969 4.4214,2.27105 0.99967,0.97736 1.17765,0.98498 1.54218,0.066 0.45743,-1.15315 0.50663,-7.15749 0.0623,-7.60183 -0.4475,-0.44751 -0.47949,-1.64214 -0.0478,-1.78603 0.23389,-0.078 0.19183,-0.50082 -0.16157,-1.62436 -0.26278,-0.83543 -0.41676,-1.57998 -0.34218,-1.65456 0.0746,-0.0746 -0.74514,-1.05017 -1.82159,-2.168 -1.07645,-1.11782 -1.95772,-2.13037 -1.95839,-2.25011 -0.001,-0.21107 0.2881,0.0122 3.10823,2.39949 1.26618,1.07182 1.33238,1.09614 1.44041,0.52917 0.0623,-0.32686 0.009,-1.3682 -0.11901,-2.31408 -0.30821,-2.28245 -0.29204,-3.06714 0.13085,-6.35 0.49648,-3.8542 0.73419,-2.7426 0.67928,3.17661 -0.025,2.69125 0.0441,5.16193 0.15338,5.49039 0.12458,0.37433 0.0476,0.90028 -0.20636,1.40929 -0.51181,1.02596 -0.35355,4.35356 0.23816,5.00739 0.49517,0.54715 0.5064,1.65934 0.0261,2.5904 -0.27941,0.54169 -0.33637,1.48223 -0.23556,3.88946 0.0731,1.74625 0.15161,3.88938 0.17439,4.7625 0.0228,0.87313 0.14811,1.81302 0.2785,2.08865 0.1586,0.33525 0.0911,0.89509 -0.20398,1.69118 -0.33485,0.90348 -0.3683,1.2777 -0.13891,1.5541 0.20836,0.25105 0.23592,0.87591 0.0888,2.01298 -0.11735,0.90691 -0.22589,2.52495 -0.24121,3.59564 -0.0277,1.93325 -0.034,1.94991 -0.92122,2.40869 l -0.89336,0.46198 0.70898,0.17794 c 0.86144,0.21621 1.76723,1.84228 1.29132,2.31818 -0.21928,0.21928 -0.40156,0.0459 -0.69822,-0.6641 -0.38646,-0.92495 -0.45142,-0.96086 -1.73788,-0.96086 -0.73504,0 -1.33642,0.1154 -1.33642,0.25645 0,0.46375 -2.76674,2.03755 -4.17662,2.37577 -12.35321,4.20641 -8.07141,2.79307 -3.36399,0.57278 z m -174.08616,2.25776 c -0.54953,-0.23438 -0.68326,-0.39673 -0.44705,-0.54272 0.37526,-0.23192 1.89259,0.30405 1.89259,0.66853 0,0.31763 -0.5099,0.27325 -1.44554,-0.12581 z m -7.0979204,-3.8089 c -0.0594,-0.10914 -0.12291,-1.51672 -0.1411,-3.12796 l -0.0331,-2.92952 1.05293,-1.02816 1.0529404,-1.02816 -0.71631,-0.57117 c -0.5734704,-0.45727 -0.7095704,-0.77603 -0.6824904,-1.59856 0.0186,-0.56508 -0.14062,-1.29824 -0.35383,-1.62926 -0.2132,-0.33102 -0.51716,-1.60523 -0.67547,-2.83157 -0.2709,-2.0986 -0.2537,-2.28754 0.29243,-3.21317 0.4166,-0.70608 0.52525,-1.17607 0.38523,-1.66635 -0.20614,-0.72181 -0.42672,-3.57973 -0.37944,-4.91622 0.15559,-4.39799 0.32971,-7.27605 0.44021,-7.27605 0.0738,0 0.36442,0.12326 0.6459,0.2739 0.5901904,0.31586 0.7020404,0.91407 0.12986,0.6945 -0.3183,-0.12214 -0.38755,0.36902 -0.41571,2.94825 -0.0597,5.46806 0.0243,7.57306 0.33769,8.4592 0.2395704,0.67747 0.2303304,1.05258 -0.0423,1.71979 -0.19182,0.46933 -0.39337,1.66986 -0.44789,2.66786 l -0.0991,1.81454 0.9403104,-0.17641 c 0.51718,-0.097 1.14022,-0.25124 1.38455,-0.34272 0.38075,-0.14255 0.39436,-0.10495 0.0952,0.26309 -0.19195,0.23617 -0.69797,0.50605 -1.12448,0.59973 -0.6940204,0.15243 -0.7754704,0.27745 -0.7754704,1.19041 0,1.39611 0.3994304,2.32968 1.1413904,2.66774 0.54134,0.24665 1.0666,0.0385 4.01453,-1.59076 1.86543,-1.03099 3.50712,-1.87453 3.6482,-1.87453 0.58977,0 -0.54434,0.85424 -3.45811,2.60472 -3.58842,2.15579 -5.0814204,3.67598 -5.0814204,5.17393 0,1.45979 -0.56995,4.92135 -0.8103,4.92135 -0.11924,0 -0.26542,-0.0893 -0.32483,-0.19844 z M 18.98348,166.38416 c 0,-0.33664 1.60821,-1.44036 1.80674,-1.23996 0.0977,0.0986 -0.17955,0.4657 -0.61611,0.81573 -0.82456,0.66113 -1.19063,0.79156 -1.19063,0.42423 z m -6.08542,-1.60895 c 0,-0.29344 0.81397,-0.62545 1.0224,-0.41702 0.0841,0.0841 -0.0222,0.26367 -0.23631,0.39905 -0.49473,0.31288 -0.78609,0.31954 -0.78609,0.018 z m 8.73125,-0.0999 c 0,-0.22053 0.1786,-0.4695 0.39688,-0.55326 0.21828,-0.0838 0.39687,-0.0515 0.39687,0.0716 0,0.12313 -0.17859,0.3721 -0.39687,0.55326 -0.32309,0.26813 -0.39688,0.25482 -0.39688,-0.0716 z m -3.63802,-14.00966 c -0.51421,-0.248 -0.82934,-0.73541 -0.47547,-0.73541 0.33757,0 1.46766,0.64389 1.46766,0.83622 0,0.28332 -0.24794,0.25813 -0.99219,-0.10081 z m -3.9026,-1.69053 c -5.7081704,-2.44644 -5.5244904,-2.1786 -5.5640904,-8.11377 -0.024,-3.59805 0.0515,-4.6853 0.35878,-5.16605 0.29303,-0.45847 0.3141,-0.68398 0.0853,-0.91282 -0.36265,-0.36265 -0.40135,-3.60307 -0.0497,-4.15916 0.13538,-0.21407 0.30683,-0.32853 0.38099,-0.25437 0.0742,0.0742 0.1878,1.67806 0.25253,3.56421 0.0647,1.88616 0.14495,3.42937 0.17828,3.42937 0.0333,0 0.0945,0.5137 0.13588,1.14155 0.0523,0.79358 -0.0387,1.1853 -0.29874,1.28508 -0.2836,0.10883 -0.37402,0.71371 -0.37402,2.50214 0,2.2591 0.0279,2.37133 0.66146,2.66 0.6662504,0.30357 0.7615604,0.49281 0.6752904,1.34092 -0.0275,0.27001 0.13178,0.46302 0.38202,0.46302 0.26026,0 0.35384,-0.12181 0.23781,-0.30955 -0.13043,-0.21104 -0.0443,-0.25314 0.27061,-0.13229 0.25406,0.0975 0.51171,0.17725 0.57257,0.17725 0.0609,0 0.11065,0.1771 0.11065,0.39356 0,0.44712 1.63608,1.55252 2.67853,1.80972 0.6969,0.17194 2.18281,1.23195 1.6871,1.20354 -0.14552,-0.008 -1.21708,-0.4234 -2.38125,-0.92235 z m -3.39008,-4.0203 c -1.0149504,-1.05937 -0.8782704,-1.22293 0.31746,-0.37988 0.56564,0.3988 0.97533,0.81439 0.91043,0.92353 -0.20644,0.34716 -0.49821,0.21797 -1.22789,-0.54365 z m 190.0146,-11.82562 c -0.21088,-0.3257 -0.25229,-7.63442 -0.0669,-11.80164 l 0.13663,-3.07039 -0.80912,-0.33515 c -0.44502,-0.18433 -0.80912,-0.43977 -0.80912,-0.56763 0,-0.3192 0.72444,-0.29409 0.92604,0.0321 0.37048,0.59945 0.66146,0.19207 0.66146,-0.92604 0,-1.05585 -0.0674,-1.19158 -0.59532,-1.19904 -0.54201,-0.008 -0.55512,-0.039 -0.14637,-0.3496 0.33443,-0.25417 0.41616,-0.6054 0.32044,-1.37714 -0.11691,-0.94257 0.23298,-5.0149 0.58381,-6.79496 l 0.14287,-0.72489 -1.30033,0.60245 c -0.71518,0.33135 -1.80143,0.99933 -2.41388,1.4844 -1.51717,1.20162 -1.75374,0.78436 -0.2846,-0.50197 1.07449,-0.94079 3.88565,-2.64863 4.35972,-2.64863 0.10747,0 0.10855,0.98227 0.002,2.18281 -0.27906,3.15633 -0.19217,10.00402 0.13711,10.80546 0.20091,0.48899 0.19131,1.70095 -0.0335,4.23333 -0.17326,1.95151 -0.38815,5.2746 -0.47753,7.38465 -0.0894,2.11005 -0.23959,3.7174 -0.33382,3.57188 z m -184.6113,-3.17109 c -0.93002,-0.64955 -2.5636,-1.60642 -3.63018,-2.12638 -1.06657,-0.51996 -2.00931,-1.05879 -2.09498,-1.1974 -0.33466,-0.5415 -0.5927704,-0.19854 -0.7561804,1.00476 -0.17763,1.3081 -0.54715,2.15053 -0.82251,1.87517 -0.088,-0.088 -0.0587,-1.12115 0.0652,-2.29587 0.17138,-1.62515 0.14092,-2.29678 -0.1274,-2.80888 -0.22687,-0.43299 -0.25194,-0.67302 -0.0703,-0.67302 0.19674,0 0.19362,-0.16578 -0.0103,-0.54681 -0.16096,-0.30075 -0.26618,-0.92583 -0.23382,-1.38907 0.0324,-0.46323 -0.0285,-1.38243 -0.13513,-2.04266 -0.15768,-0.97589 -0.0744,-1.47083 0.44548,-2.64629 l 0.63944,-1.44588 -0.47944,-1.98392 c -0.26369,-1.09115 -0.41282,-2.19799 -0.3314,-2.45963 0.0814,-0.26165 0.002,-0.65115 -0.17551,-0.86556 -0.3737,-0.45028 -0.15795,-3.42291 0.28737,-3.95948 0.23303,-0.28079 0.0962,-2.68832 -0.2928,-5.15029 -0.0345,-0.21828 -0.0439,-1.02195 -0.021,-1.785938 0.0398,-1.328018 0.0736,-1.3892 0.76928,-1.392203 0.40018,-0.0019 1.3769104,-0.175935 2.1705104,-0.38713 1.2841,-0.341728 1.90149,-0.352386 1.57631,-0.02721 -0.0614,0.06143 -0.88494,0.400889 -1.83003,0.754356 l -1.7183504,0.642668 -0.0141,5.599297 -0.0141,5.59929 0.6756,0.45217 c 0.3715804,0.24869 1.2584404,0.72584 1.9708204,1.06033 0.71237,0.33449 1.2246,0.67878 1.13829,0.7651 -0.13916,0.13916 -1.83213,-0.53224 -3.1868904,-1.26385 -0.26883,-0.14518 -0.5338,-0.21893 -0.58883,-0.16391 -0.19391,0.19391 0.22826,2.84703 0.45302,2.84703 0.12525,0 0.22773,0.23813 0.22773,0.52917 0,0.29104 0.0314,0.52917 0.0699,0.52917 0.0384,0 0.72136,-0.23813 1.51761,-0.52917 2.10416,-0.7691 2.50086,-0.61109 0.684,0.27243 -1.4631,0.7115 -1.61039,0.86949 -2.2628116,2.42711 -0.46859,1.11876 -0.64894,1.92684 -0.549,2.45984 0.0819,0.43656 0.0369,1.47092 -0.0999,2.29857 -0.20699,1.25208 -0.16846,1.68292 0.22938,2.56517 0.6139216,1.36144 1.1514316,1.82615 3.6409516,3.1478 1.79913,0.95514 4.97201,3.12314 4.97201,3.39733 0,0.27486 -0.54509,-0.009 -2.08782,-1.08621 z m 175.00628,-14.13079 c 0.55969,-0.52615 3.40561,-1.87951 3.92662,-1.86728 0.33995,0.008 -0.21753,0.41651 -1.4263,1.04524 -1.86128,0.96812 -3.08297,1.36977 -2.50032,0.82204 z m 0.0603,-4.42405 c 1.12804,-0.94228 3.30088,-2.21864 3.77694,-2.21864 0.62347,0 0.14461,0.53327 -0.95829,1.06717 -0.66488,0.32186 -1.52808,0.83945 -1.91823,1.15019 -3.96021,2.72391 -4.22269,2.77607 -0.90042,0.001 z m -175.53551,1.76817 c -1.12046,-0.18316 -1.94113,-0.66489 -1.94113,-1.13944 0,-0.14445 0.31002,-0.0595 0.68893,0.18878 0.37892,0.24828 1.06353,0.48314 1.52136,0.52192 0.45783,0.0388 1.04078,0.0875 1.29544,0.10819 0.25466,0.0207 0.46302,0.15674 0.46302,0.30226 0,0.28857 -0.35454,0.29177 -2.02762,0.0183 z m 184.19205,-9.28055 c -0.19968,-0.3231 0.52619,-0.64284 0.91453,-0.40284 0.16974,0.10491 0.27725,-0.13642 0.27725,-0.6224 0,-0.43656 -0.10941,-0.86137 -0.24313,-0.94401 -0.13899,-0.0859 -0.0848,-0.46773 0.1266,-0.8914 0.28388,-0.56906 0.3126,-1.092129 0.12371,-2.252769 -0.28432,-1.746877 -0.41296,-6.737969 -0.17968,-6.971245 0.3108,-0.310803 0.75349,1.398276 0.73203,2.82611 -0.0379,2.518225 -0.0419,4.836377 -0.0115,6.566544 0.0413,2.34726 -0.15174,2.95846 -0.93434,2.95846 -0.35244,0 -0.71491,-0.1199 -0.80548,-0.26645 z M 13.16265,97.661523 c 0,-0.138142 1.67676,-0.91254 1.97587,-0.91254 0.0774,0 0.14079,0.107416 0.14079,0.238699 0,0.131286 -0.37495,0.369411 -0.83323,0.529167 -0.92541,0.322601 -1.28343,0.362958 -1.28343,0.144674 z m -4.5148104,-0.43379 c -0.45702,-2.212334 -0.4014,-3.797641 0.20869,-5.947635 0.29608,-1.043419 0.45365,-1.995919 0.35016,-2.116666 -0.10349,-0.120748 -0.33086,-0.72148 -0.50526,-1.334956 -0.24362,-0.856959 -0.24491,-1.230998 -0.006,-1.614241 0.24803,-0.397153 0.21986,-0.682133 -0.13819,-1.39813 -0.36991,-0.739685 -0.41875,-1.32194 -0.27522,-3.28055 0.096,-1.309688 0.32894,-2.627601 0.51771,-2.928697 0.29722,-0.474083 0.27371,-0.590844 -0.17539,-0.871315 -0.28523,-0.178128 -0.49369,-0.52709 -0.46324,-0.77547 0.0304,-0.248381 -0.0301,-0.64669 -0.13459,-0.885132 -0.10447,-0.23844 -0.0592,-1.154303 0.10051,-2.035249 0.15974,-0.880946 0.21571,-1.899481 0.12437,-2.263413 -0.0913,-0.363929 -0.0738,-0.810982 0.039,-0.993449 0.18826,-0.30461 0.45221,-2.731834 0.39877,-3.667067 -0.0472,-0.8259 -0.28734,-7.304879 -0.29422,-7.937501 -0.0165,-1.519118 0.21688,-4.53359 0.36227,-4.678979 0.43137,-0.431368 0.64154,1.313741 0.38733,3.216143 -0.35457,2.653406 -0.10168,3.008413 1.5992104,2.245051 0.63436,-0.284697 1.25944,-0.517631 1.38907,-0.517631 0.4242,0 0.24695,0.542136 -0.22733,0.695335 -0.79914,0.258133 -2.2199904,1.01395 -2.3789504,1.265476 -0.27288,0.431692 -0.34206,4.918242 -0.0758,4.918242 0.13945,0 0.6578804,0.355005 1.1520604,0.7889 0.49418,0.433896 1.54012,1.087575 2.32431,1.452623 0.90704,0.422236 1.21719,0.664666 0.85242,0.666309 -0.63531,0.0029 -2.54865,-0.812314 -3.4419,-1.466424 -0.5394704,-0.395042 -0.5952904,-0.384977 -0.8869104,0.159914 -0.24226,0.452665 -0.2354,0.723132 0.031,1.220832 0.29082,0.543388 0.27322,0.756076 -0.11727,1.417119 -0.36918,0.624972 -0.39937,0.890024 -0.15366,1.349137 0.23914,0.446842 0.21224,0.923653 -0.12343,2.187829 -0.53378,2.010259 -0.30283,3.093194 0.73781,3.459583 0.5978704,0.210495 0.9681304,0.122465 2.0977304,-0.498742 0.75445,-0.414893 1.78844,-1.141881 2.29776,-1.615522 0.97647,-0.90806 2.60476,-1.842497 2.82567,-1.621584 0.0719,0.07186 -0.20709,0.342845 -0.6199,0.602179 -0.41281,0.259334 -1.23924,0.910167 -1.83652,1.446294 -0.59728,0.536128 -1.34142,1.055857 -1.65365,1.154954 -0.31223,0.09909 -0.56768,0.288796 -0.56768,0.42155 0,0.132758 -0.44649,0.478849 -0.99219,0.769094 -0.5457,0.290243 -1.31961,0.822732 -1.7197904,1.183312 -0.66935,0.603102 -0.72693,0.810204 -0.71919,2.586514 0.006,1.276892 0.13999,2.104882 0.39687,2.444512 0.21366,0.282474 0.38846,0.760447 0.38846,1.062162 0,0.301714 0.5953204,1.284308 1.3229204,2.183542 1.7542,2.167994 1.6846,2.418297 -0.12697,0.456589 -1.4141404,-1.531342 -1.4427704,-1.54722 -1.1612604,-0.644009 0.15874,0.509323 0.4510804,1.258012 0.6496304,1.66375 0.32371,0.661498 0.31491,0.729832 -0.0851,0.661459 -0.3299804,-0.0564 -0.4892704,0.17958 -0.6117304,0.906245 -0.0911,0.540375 -0.0472,1.100873 0.0975,1.245558 0.17435,0.174361 0.14617,0.403897 -0.0836,0.680736 -0.19065,0.229719 -0.40385,1.309087 -0.47377,2.398596 -0.0699,1.089507 -0.23035,2.044719 -0.35652,2.122697 -0.12617,0.07798 -0.237,0.104981 -0.24629,0.06001 z M 13.82411,90.928149 c -0.26339,-0.291041 -0.37114,-0.52538 -0.23945,-0.520752 0.30758,0.01081 1.16549,0.659053 1.16549,0.880649 0,0.336008 -0.45699,0.158404 -0.92604,-0.359897 z m 186.62919,0.396876 c -0.0233,-0.145521 -0.0758,-0.681303 -0.11667,-1.190626 -0.0408,-0.509322 -0.1543,-1.580885 -0.25218,-2.38125 -0.11345,-0.927745 -0.0379,-2.129586 0.20845,-3.315739 0.27875,-1.342113 0.32254,-2.300521 0.15717,-3.439584 -0.12609,-0.868479 -0.20844,-2.335871 -0.183,-3.260871 0.0425,-1.545074 -0.0192,-1.749446 -0.7585,-2.513541 -0.44261,-0.457449 -1.1773,-1.108671 -1.63263,-1.44716 -0.45534,-0.338489 -0.82788,-0.812964 -0.82788,-1.054388 0,-0.334899 0.17248,-0.262557 0.7276,0.305178 0.40019,0.409271 1.19166,1.04091 1.75884,1.403641 l 1.03124,0.659514 -0.16904,-1.407586 c -0.093,-0.774174 -0.17008,-1.846051 -0.17134,-2.381946 -0.002,-0.743149 -0.12878,-1.014503 -0.53531,-1.143529 -0.66257,-0.210291 -0.44488,-0.658853 0.23363,-0.481418 0.42993,0.11243 0.50411,-0.05346 0.57308,-1.28161 0.16508,-2.939677 -0.0536,-7.058207 -0.40488,-7.626657 -0.33056,-0.53486 -1.43231,-0.242152 -2.98089,0.791946 -1.76324,1.177449 -2.25071,1.340167 -1.493,0.498369 0.73104,-0.812165 2.56258,-2.028 3.35436,-2.22672 1.11493,-0.279832 1.60892,-1.04724 1.63046,-2.532894 l 0.0194,-1.335587 -1.19175,0.149693 -1.19174,0.149693 0.80506,-0.41602 c 1.26942,-0.655976 1.46365,-1.461987 1.58962,-6.596557 0.063,-2.566716 0.17864,-4.770568 0.25706,-4.897449 0.34889,-0.564515 -0.23128,-1.495888 -1.27675,-2.049619 -0.61073,-0.323471 -1.25924,-0.587799 -1.44114,-0.587395 -0.1819,4.04e-4 -0.33073,-0.118327 -0.33073,-0.263848 0,-0.412387 1.21982,-0.310736 1.5875,0.132292 0.18116,0.218281 0.45767,0.396875 0.61448,0.396875 0.18575,0 0.17446,-0.110643 -0.0324,-0.3175 -0.37399,-0.373995 -0.42753,-0.840067 -0.0712,-0.619841 0.13547,0.08372 0.32109,0.03122 0.41249,-0.116677 0.0914,-0.147907 -0.0719,-0.268899 -0.36297,-0.268899 -0.29105,0 -0.61342,-0.136325 -0.7164,-0.302945 -0.12863,-0.208132 0.0258,-0.26223 0.4933,-0.172853 0.5148,0.09841 0.71313,0.0054 0.81439,-0.381772 0.21158,-0.809081 -0.10411,-5.298465 -0.41814,-5.946432 -0.20313,-0.419134 -0.20219,-0.685045 0.003,-0.932656 0.31883,-0.384158 0.74936,-3.111259 0.49118,-3.111259 -0.0897,0 -0.4708,0.487499 -0.84693,1.083331 -1.20172,1.903639 -1.03141,0.869764 0.26561,-1.612498 0.1901,-0.363802 0.41703,-1.048411 0.5043,-1.521354 0.1786,-0.967835 0.33349,-0.916051 -3.00309,-1.004007 -0.94589,-0.02493 -2.4937,-0.127028 -3.43959,-0.226875 l -1.71979,-0.18154 -1.71979,2.777672 c -1.79032,2.891577 -2.70741,3.828774 -1.38257,1.412875 0.41895,-0.763984 0.83903,-1.74625 0.93349,-2.182812 0.0945,-0.436563 0.24831,-1.062683 0.34188,-1.391378 0.15264,-0.536186 0.0785,-0.597328 -0.72123,-0.594705 -0.49025,0.0016 -1.24855,0.0027 -1.68511,0.0025 -0.43656,-2.37e-4 -1.7908,0.01768 -3.00941,0.03981 l -2.21565,0.04024 0.14565,1.411214 c 0.18481,1.790694 -0.21867,2.117944 -0.45109,0.365862 -0.0954,-0.718852 -0.29094,-1.379656 -0.43461,-1.468452 -0.14368,-0.0888 -0.19971,-0.260998 -0.12451,-0.38267 0.16799,-0.271807 -2.77998,-0.07439 -4.22913,0.283215 -0.58208,0.143639 -1.77271,0.189217 -2.64583,0.101283 -0.87313,-0.08793 -2.41159,-0.241713 -3.41881,-0.341733 -1.08928,-0.10817 -1.87545,-0.31586 -1.94027,-0.512583 -0.14088,-0.427541 1.82765,-0.447331 3.11186,-0.03129 1.02527,0.332157 5.00685,0.307789 5.42222,-0.03318 0.2039,-0.167385 9.89585,-0.192242 12.36927,-0.03173 0.28893,0.01875 0.46975,0.253879 0.48092,0.625361 l 0.0179,0.595313 0.29092,-0.603855 c 0.28909,-0.600059 0.32099,-0.603385 5.07532,-0.529167 l 4.7844,0.07469 -0.11986,0.79375 c -0.12893,0.853874 -0.13754,1.372799 -0.0702,4.233334 0.024,1.018646 0.0188,2.983177 -0.0115,4.365625 -0.0303,1.382448 -0.0135,5.311511 0.0372,8.73125 0.0507,3.41974 0.0116,8.033412 -0.087,10.252605 -0.13365,3.007902 -0.10044,4.034896 0.13048,4.034896 0.19592,0 0.23518,0.170153 0.10682,0.46302 -0.35365,0.8069 -0.57511,4.320903 -0.34869,5.532867 0.24289,1.300146 0.24833,1.892194 0.12231,13.318696 -0.049,4.438386 -0.21071,8.784167 -0.35946,9.657292 -0.15931,0.935096 -0.17317,1.690796 -0.0337,1.838855 0.31185,0.331131 0.29559,1.497092 -0.0279,1.997604 -0.14107,0.218281 -0.27558,0.277812 -0.29893,0.132292 z m -5.14066,-33.610498 c 0.58304,-0.440984 0.94162,-0.498941 0.94162,-0.152186 0,0.254484 -0.64347,0.562745 -1.14612,0.549061 -0.17,-0.0046 -0.078,-0.183224 0.2045,-0.396875 z M 8.4001496,53.372931 c 0,-0.526479 0.34491,-0.905423 0.59577,-0.654561 0.20752,0.207518 -0.0902,1.168112 -0.36205,1.168112 -0.12855,0 -0.23372,-0.231098 -0.23372,-0.513551 z m 0.25307,-1.470824 c -0.0408,-0.291042 -0.12059,-3.743854 -0.17739,-7.672917 -0.0568,-3.929063 -0.11293,-7.381875 -0.12471,-7.672917 -0.0118,-0.291042 0.12026,-1.217736 0.29342,-2.059322 0.17317,-0.841585 0.2506,-1.734554 0.17206,-1.984375 -0.0785,-0.249821 -0.20352,-1.561261 -0.27776,-2.914311 -0.0742,-1.353051 -0.20826,-2.752035 -0.29781,-3.108855 -0.128,-0.509984 -0.0577,-0.653973 0.32887,-0.673123 0.27044,-0.0134 4.0635804,-0.05921 8.4292104,-0.101799 7.66968,-0.07483 7.95735,-0.05927 8.5259,0.460869 0.5121,0.468495 0.60915,0.48425 0.74836,0.121482 0.11664,-0.303953 0.49465,-0.408384 1.39597,-0.385654 0.67981,0.01714 2.62656,-0.0133 4.32611,-0.06765 2.1843,-0.06985 3.20503,-0.0034 3.48218,0.226577 0.22266,0.184794 0.45689,0.22052 0.54208,0.08268 0.0825,-0.133493 0.89677,-0.249299 1.80949,-0.257347 l 1.65949,-0.01464 -0.90227,0.39484 c -0.49625,0.217161 -1.171,0.327391 -1.49946,0.244954 -0.90434,-0.226977 -0.88851,0.279405 0.0689,2.204032 0.96175,1.933297 1.07366,2.370613 0.48071,1.878508 -0.21828,-0.181157 -0.39687,-0.429844 -0.39687,-0.552636 0,-0.366234 -2.12833,-3.545634 -2.39749,-3.581479 -0.13659,-0.01819 -0.33764,-0.05861 -0.44678,-0.08983 -0.10914,-0.03122 -1.4486,-0.02255 -2.97657,0.01926 -1.52796,0.04181 -3.23397,0.07611 -3.79111,0.07621 -1.10785,2.1e-4 -1.06721,-0.171922 -0.48956,2.073205 0.13973,0.543094 0.50749,1.416982 0.81724,1.941973 0.30976,0.524991 0.42206,0.907486 0.24956,0.849987 -0.17249,-0.0575 -0.62126,-0.701321 -0.99727,-1.430719 -0.37601,-0.729397 -1.21351,-1.828386 -1.86113,-2.442197 l -1.17748,-1.11602 -3.40896,-0.06364 c -3.7108,-0.06927 -3.89337,0.0013 -3.89337,1.504746 0,0.36478 -0.11906,0.736822 -0.26458,0.826759 -0.16124,0.09965 -0.26459,-0.295923 -0.26459,-1.012689 0,-1.123868 -0.0381,-1.181806 -0.85684,-1.301967 -0.47126,-0.06917 -1.21462,-0.02315 -1.6519,0.102262 -0.43728,0.12541 -1.68881,0.227752 -2.78117,0.227426 l -1.9861304,-5.94e-4 0.0845,2.5224 0.0845,2.522399 1.0399904,0.656513 c 0.57199,0.361082 1.03998,0.769063 1.03998,0.906624 0,0.137561 0.52568,0.558179 1.16818,0.934707 0.64249,0.376528 1.3143,0.860674 1.49291,1.07588 0.54319,0.654512 0.0646,0.735963 -0.78207,0.133093 -0.43851,-0.312243 -1.15487,-0.69237 -1.59192,-0.844727 -0.43706,-0.152358 -0.8671,-0.505314 -0.95566,-0.784347 -0.14832,-0.467299 -1.1137104,-1.193945 -1.3166304,-0.991021 -0.0483,0.04828 0.0203,0.666442 0.15244,1.373683 0.13212,0.707241 0.17428,1.392598 0.0937,1.523015 -0.0806,0.130417 0.0396,0.308551 0.26709,0.395853 0.5304704,0.203559 0.5322404,0.567757 0.003,0.678027 -0.33289,0.0694 -0.43828,0.684859 -0.55831,3.260546 -0.1975,4.237837 -0.17762,5.706668 0.0867,6.400718 l 0.22081,0.579885 1.3227804,-0.674302 c 1.89992,-0.968501 2.51341,-1.18019 2.51341,-0.867267 0,0.146608 -0.21504,0.352021 -0.47786,0.456472 -0.50917,0.202356 -2.62361,2.43887 -2.30575,2.43887 0.10361,0 0.50442,-0.221245 0.89068,-0.491654 1.1599,-0.811996 1.89293,-1.140137 1.89293,-0.847367 0,0.146904 -0.34759,0.446845 -0.77243,0.666536 -1.13632,0.587614 -3.5671804,3.202253 -3.7603304,4.04461 -0.13158,0.573892 -0.18289,0.616376 -0.24124,0.19975 z M 14.22098,44.912341 c 0,-0.326059 0.69792,-0.552194 1.67529,-0.542814 0.59032,0.0057 0.72087,0.07316 0.44138,0.228196 -0.62516,0.346778 -2.11667,0.568474 -2.11667,0.314618 z m 182.03333,-3.461276 c 0,-0.145521 0.17859,-0.264583 0.39688,-0.264583 0.21828,0 0.39687,0.119062 0.39687,0.264583 0,0.145521 -0.17859,0.264583 -0.39687,0.264583 -0.21829,0 -0.39688,-0.119062 -0.39688,-0.264583 z M 16.33863,37.61565 c -0.93143,-0.991458 -0.37949,-1.163129 0.59772,-0.185913 0.57982,0.579822 0.71665,0.846328 0.43452,0.846328 -0.2265,0 -0.69101,-0.297187 -1.03224,-0.660415 z m 145.51985,-1.945937 c 0,-0.618688 0.62255,-1.904011 0.82443,-1.702129 0.25295,0.252951 -0.28381,1.927231 -0.61786,1.927231 -0.11361,0 -0.20657,-0.101296 -0.20657,-0.225102 z M 38.74482,32.867563 c -0.78456,-1.403744 -0.80711,-1.470665 -0.49548,-1.470665 0.3151,0 1.42998,2.073942 1.30938,2.435749 -0.0564,0.169207 -0.42266,-0.265081 -0.8139,-0.965084 z m 144.73844,0.72975 c -0.0682,-0.118822 -0.20327,-0.69229 -0.30012,-1.274373 -0.0969,-0.582084 -0.24101,-1.385756 -0.32036,-1.785938 -0.0793,-0.400182 -0.0369,-0.727604 0.0944,-0.727604 0.13124,0 0.37178,0.860324 0.53454,1.911831 0.27889,1.80181 0.27634,2.37204 -0.008,1.876084 z m 14.35855,-0.200425 c 0,-0.226869 0.11906,-0.41249 0.26458,-0.41249 0.14552,0 0.26459,0.112036 0.26459,0.248968 0,0.136933 -0.11907,0.322553 -0.26459,0.41249 -0.14552,0.08994 -0.26458,-0.0221 -0.26458,-0.248968 z m -10.0417,-0.147907 c -0.006,-0.565107 0.41837,-1.166902 0.60744,-0.860976 0.0863,0.139618 -0.0141,0.479752 -0.22309,0.755852 -0.29222,0.386049 -0.38099,0.410331 -0.38435,0.105124 z m -24.8663,-1.124479 c 0.1173,-0.618463 0.39851,-1.830001 0.62492,-2.692305 0.22642,-0.862305 0.38297,-1.588122 0.34789,-1.612928 -0.70815,-0.500833 -1.78771,-0.810301 -2.01919,-0.578823 -0.19586,0.195853 -0.47875,0.188251 -0.94782,-0.02547 -1.1831,-0.539057 -0.78129,-0.867229 0.85272,-0.696445 2.14022,0.223692 2.14269,0.223443 3.87753,-0.389995 0.85933,-0.30386 2.0943,-0.552473 2.74438,-0.552473 1.04355,0 1.14162,0.04859 0.83754,0.414986 -0.21991,0.26497 -0.68594,0.390483 -1.28917,0.347204 -0.51962,-0.03728 -1.39124,0.02735 -1.93695,0.143626 -0.84204,0.179418 -0.99233,0.317057 -0.99317,0.909568 -5.3e-4,0.383987 -0.21802,1.055346 -0.48327,1.491908 -0.26526,0.436563 -0.69921,1.597422 -0.96433,2.579688 -0.53233,1.972262 -0.98736,2.434547 -0.65108,0.661459 z m -92.60027,0.440972 c 0.0127,-0.308224 0.0754,-0.370919 0.15985,-0.159852 0.0764,0.190996 0.067,0.419199 -0.0209,0.507118 -0.0879,0.08792 -0.15046,-0.06835 -0.13897,-0.347266 z M 57.62216,31.492355 c -0.0125,-0.395893 0.96163,-1.592097 1.14663,-1.408034 0.0788,0.07845 -0.14475,0.495166 -0.49688,0.926042 -0.35213,0.430875 -0.64452,0.647772 -0.64975,0.481992 z m 66.13632,-0.108596 c 0,-0.475536 0.79368,-1.838944 1.0705,-1.838944 0.14474,0 0.0202,0.47625 -0.27675,1.058333 -0.53855,1.055638 -0.79375,1.306617 -0.79375,0.780611 z m 15.30947,-1.139441 c -0.63485,-0.779439 -1.51145,-1.570245 -1.94801,-1.757347 -0.43657,-0.187101 -1.29324,-0.561409 -1.90372,-0.831795 -0.61048,-0.270387 -1.26532,-0.494259 -1.45521,-0.497495 -0.18988,-0.0032 -0.62933,-0.224324 -0.97655,-0.491307 -0.84501,-0.649752 -0.29417,-0.975846 0.74269,-0.439664 0.43361,0.224228 1.02539,0.407688 1.31507,0.407688 0.28968,0 0.60028,0.119062 0.69022,0.264583 0.25868,0.418561 0.51509,0.312179 0.79715,-0.330729 0.22437,-0.511419 0.44761,-0.590186 1.5841,-0.558933 2.32436,0.06392 2.51354,0.09093 2.51354,0.358918 0,0.157736 -0.68836,0.222319 -1.71979,0.161354 -1.53478,-0.09072 -1.7198,-0.04888 -1.7198,0.388853 0,0.269778 0.83074,1.358028 1.84609,2.418333 1.01536,1.060306 1.84879,2.017126 1.85209,2.126267 0.0155,0.512312 -0.56268,0.0768 -1.61787,-1.218726 z M 16.07306,30.751054 c 0,-0.427054 0.37473,-0.743316 0.60633,-0.511721 0.20647,0.206475 -0.078,0.892982 -0.37005,0.892982 -0.12995,0 -0.23628,-0.171567 -0.23628,-0.381261 z m 53.20097,-1.025372 c -0.35574,-0.876492 -1.00379,-1.848385 -1.55548,-2.332767 -0.87441,-0.767748 -0.96067,-0.792719 -1.14474,-0.331394 -0.18725,0.469292 -0.20933,0.464898 -0.37179,-0.07399 -0.23203,-0.769719 -1.08411,-0.939242 -3.66737,-0.729638 l -2.16898,0.17599 -0.58276,1.01257 c -0.32052,0.556913 -0.58276,1.19734 -0.58276,1.423171 0,0.225831 -0.11907,0.410602 -0.26459,0.410602 -0.37662,0 -0.32483,-0.539688 0.13673,-1.424716 0.82007,-1.572464 -0.0272,-1.76493 -6.47583,-1.471111 -5.19099,0.236516 -5.30256,0.282923 -5.30256,2.205564 0,0.711361 -0.0877,0.973018 -0.26618,0.7945 -0.17348,-0.173474 -0.18119,-0.721095 -0.0222,-1.572352 0.17571,-0.940539 0.15764,-1.362601 -0.0645,-1.507758 -0.1697,-0.110872 -1.79684,-0.126825 -3.61585,-0.03545 -2.31524,0.116303 -3.22793,0.08244 -3.04271,-0.112908 0.30397,-0.320579 6.4907,-0.504906 6.97157,-0.207711 0.17315,0.107012 0.70165,0.0669 1.17445,-0.08914 0.55774,-0.184071 2.5769,-0.231096 5.74952,-0.133905 4.42574,0.135581 7.77163,0.131343 10.71071,-0.01356 1.17067,-0.05772 2.86351,0.656255 3.28119,1.383878 0.22897,0.398881 0.29218,0.342017 0.44523,-0.400519 0.2103,-1.020237 0.52301,-1.280204 1.0319,-0.857864 0.20322,0.168665 0.58496,0.27516 0.8483,0.236655 0.26334,-0.0385 0.74126,0.01864 1.06205,0.12699 0.35905,0.121274 0.81672,0.05515 1.19063,-0.172026 0.57738,-0.350803 1.22262,-0.377164 5.7006,-0.232897 0.76398,0.02461 1.38906,0.155376 1.38906,0.290583 0,0.139103 -1.29228,0.229095 -2.97656,0.207282 -1.79631,-0.02326 -3.3559,0.09257 -3.93324,0.292135 -0.52617,0.181876 -1.56793,0.35649 -2.31501,0.38803 -1.55441,0.06562 -1.58248,0.133197 -0.94584,2.277002 0.58305,1.963329 0.33354,2.264761 -0.39297,0.474754 z m 35.79803,-0.320223 c 0.12184,-1.036618 0.062,-1.674713 -0.20553,-2.192079 l -0.3774,-0.729806 -4.05751,0.05723 c -2.23163,0.03147 -4.63271,0.124126 -5.33573,0.205891 -0.95146,0.110662 -1.25047,0.06458 -1.16968,-0.180252 0.1518,-0.460049 2.28953,-0.669151 7.15255,-0.699626 3.62237,-0.0227 4.19731,0.03068 4.34016,0.402958 0.14146,0.368634 0.22841,0.344622 0.61685,-0.170345 0.26445,-0.350588 0.5826,-0.518864 0.76632,-0.405321 0.22423,0.138585 0.12613,0.440635 -0.3428,1.055433 -0.45228,0.592972 -0.71433,1.368593 -0.84118,2.489739 -0.10133,0.895649 -0.30431,1.628453 -0.45107,1.628453 -0.16794,0 -0.20314,-0.541975 -0.095,-1.462272 z m -10.77499,0.732653 c -0.0681,-0.110249 -0.20747,-0.64603 -0.30964,-1.190625 -0.26413,-1.407914 0.22589,-1.231954 0.55823,0.200453 0.24257,1.045514 0.11057,1.571299 -0.24859,0.990172 z m 30.62835,-1.387047 c 0.0881,-0.363803 0.22002,-0.899584 0.29324,-1.190626 0.21005,-0.834925 -2.27876,-1.853719 -2.93218,-1.200291 -0.34634,0.346334 -3.14229,0.655057 -3.73732,0.412667 -0.45022,-0.183399 -0.44719,-0.207739 0.0499,-0.402114 0.29104,-0.113795 0.84204,-0.148573 1.22445,-0.07728 0.3824,0.07129 0.97772,-0.02175 1.32292,-0.206751 0.72806,-0.390189 3.85926,-0.373607 4.3371,0.02297 0.2232,0.185238 0.42363,0.143484 0.65616,-0.136695 0.25477,-0.306977 0.42126,-0.331634 0.69656,-0.103157 0.27096,0.224878 0.45867,0.219822 0.74781,-0.02014 0.25438,-0.211122 0.68298,-0.250051 1.25677,-0.11415 0.4789,0.113428 1.37675,0.178722 1.99521,0.145096 0.86261,-0.0469 1.12448,0.03375 1.12448,0.346337 0,0.439192 -0.12552,0.455137 -3.51886,0.447015 -1.87581,-0.0045 -2.0851,0.04767 -2.29938,0.573072 -0.12965,0.317906 -0.49252,0.935199 -0.80637,1.371761 -0.54263,0.75478 -0.56279,0.761275 -0.41053,0.132292 z M 92.92717,27.179111 c -0.39039,-0.384263 -0.95495,-0.529784 -2.24161,-0.577797 -0.94588,-0.0353 -1.8218,-0.116706 -1.94647,-0.18091 -0.53276,-0.27435 0.62058,-0.571954 2.23108,-0.575705 1.47952,-0.0034 1.82589,0.08757 2.31511,0.608314 0.98347,1.046859 0.65154,1.719885 -0.35811,0.726098 z m 64.96256,-0.32398 c -0.50933,-0.139846 -2.47386,-0.280727 -4.36563,-0.313068 -1.89177,-0.03234 -3.56053,-0.133651 -3.70834,-0.225133 -0.14782,-0.09148 -0.90764,-6.09e-4 -1.68849,0.201941 -0.78085,0.20255 -1.5492,0.288256 -1.70744,0.190459 -0.15824,-0.0978 -1.42248,-0.184431 -2.80942,-0.192519 -1.49496,-0.0087 -2.52172,-0.122435 -2.52172,-0.279288 0,-0.162648 1.37613,-0.269853 3.57187,-0.278261 2.18471,-0.0084 3.96143,-0.146174 4.57497,-0.35485 0.56631,-0.192609 1.19997,-0.250052 1.45521,-0.131916 0.24866,0.11509 1.70227,0.294298 3.23024,0.39824 5.21832,0.354984 6.64732,0.654476 5.40231,1.132229 -0.23018,0.08833 -0.43854,0.148412 -0.46302,0.133516 -0.0245,-0.0149 -0.46122,-0.141503 -0.97054,-0.28135 z m -41.275,-0.24925 c -0.50933,-0.131414 -1.62969,-0.208523 -2.4897,-0.171354 -1.06575,0.04606 -1.59934,-0.03773 -1.6757,-0.26315 -0.16169,-0.477324 4.39185,-0.443269 5.02529,0.03758 0.47638,0.361623 0.61577,0.710868 0.26459,0.662938 -0.10914,-0.0149 -0.61516,-0.134603 -1.12448,-0.266017 z M 80.51141,26.19591 c 0.48287,-0.353201 7.26374,-0.393782 7.26374,-0.04347 0,0.257577 -0.22243,0.273446 -4.43649,0.316503 -2.51655,0.02571 -3.15181,-0.03563 -2.82725,-0.273032 z m 27.5705,0.252087 c -1.58139,-0.246317 -0.5984,-0.607349 1.65365,-0.607349 1.41111,0 2.38125,0.107793 2.38125,0.264583 0,0.145521 -0.26789,0.271988 -0.59531,0.281038 -0.32742,0.009 -1.07156,0.05214 -1.65365,0.09576 -0.58208,0.04362 -1.38575,0.0283 -1.78594,-0.03403 z"
       style="fill:#000000;stroke-width:0.26458335" />
    <g
       id="g826" />
  </g>
</svg>
