<?xml version="1.0" encoding="UTF-8" standalone="no"?>
<svg
   xmlns:dc="http://purl.org/dc/elements/1.1/"
   xmlns:cc="http://creativecommons.org/ns#"
   xmlns:rdf="http://www.w3.org/1999/02/22-rdf-syntax-ns#"
   xmlns:svg="http://www.w3.org/2000/svg"
   xmlns="http://www.w3.org/2000/svg"
   xmlns:sodipodi="http://sodipodi.sourceforge.net/DTD/sodipodi-0.dtd"
   xmlns:inkscape="http://www.inkscape.org/namespaces/inkscape"
   style="height: 512px; width: 512px;"
   viewBox="0 0 512 512"
   version="1.1"
   id="svg8"
   sodipodi:docname="d6_1.svg"
   inkscape:version="0.92.3 (2405546, 2018-03-11)">
  <metadata
     id="metadata14">
    <rdf:RDF>
      <cc:Work
         rdf:about="">
        <dc:format>image/svg+xml</dc:format>
        <dc:type
           rdf:resource="http://purl.org/dc/dcmitype/StillImage" />
      </cc:Work>
    </rdf:RDF>
  </metadata>
  <defs
     id="defs12" />
  <sodipodi:namedview
     pagecolor="#ffffff"
     bordercolor="#666666"
     borderopacity="1"
     objecttolerance="10"
     gridtolerance="10"
     guidetolerance="10"
     inkscape:pageopacity="0"
     inkscape:pageshadow="2"
     inkscape:window-width="1920"
     inkscape:window-height="1137"
     id="namedview10"
     showgrid="false"
     inkscape:zoom="0.4609375"
     inkscape:cx="256"
     inkscape:cy="61.852168"
     inkscape:window-x="-8"
     inkscape:window-y="-8"
     inkscape:window-maximized="1"
     inkscape:current-layer="svg8" />
  <g
     class=""
     style="touch-action: none;"
     transform="translate(0,0)"
     id="g6">
    <path
       id="path4"
       d="M 74.5,36 A 38.5,38.5 0 0 0 36,74.5 v 363 A 38.5,38.5 0 0 0 74.5,476 h 363 A 38.5,38.5 0 0 0 476,437.5 V 74.5 A 38.5,38.5 0 0 0 437.5,36 Z M 391.47,72.03 A 50,50 0 0 1 440,122 50,50 0 0 1 340,122 50,50 0 0 1 391.47,72.03 Z m -268,268 A 50,50 0 0 1 172,390 50,50 0 0 1 72,390 50,50 0 0 1 123.47,340.03 Z M 0,0 H 512 V 512 H 0 Z" />
  </g>
</svg>
