<?xml version="1.0" encoding="UTF-8" standalone="no"?>
<svg
   xmlns:dc="http://purl.org/dc/elements/1.1/"
   xmlns:cc="http://creativecommons.org/ns#"
   xmlns:rdf="http://www.w3.org/1999/02/22-rdf-syntax-ns#"
   xmlns:svg="http://www.w3.org/2000/svg"
   xmlns="http://www.w3.org/2000/svg"
   xmlns:sodipodi="http://sodipodi.sourceforge.net/DTD/sodipodi-0.dtd"
   xmlns:inkscape="http://www.inkscape.org/namespaces/inkscape"
   inkscape:version="1.0 (4035a4fb49, 2020-05-01)"
   sodipodi:docname="dXBlack.svg"
   viewBox="0 0 480 480"
   version="1.1"
   id="svg8"
   width="480"
   height="480">
  <sodipodi:namedview
     inkscape:current-layer="svg8"
     inkscape:window-maximized="1"
     inkscape:window-y="-8"
     inkscape:window-x="-8"
     inkscape:cy="240"
     inkscape:cx="240"
     inkscape:zoom="1.53125"
     showgrid="false"
     id="namedview7"
     inkscape:window-height="1137"
     inkscape:window-width="1920"
     inkscape:pageshadow="2"
     inkscape:pageopacity="0"
     guidetolerance="10"
     gridtolerance="10"
     objecttolerance="10"
     borderopacity="1"
     bordercolor="#666666"
     pagecolor="#ffffff" />
  <metadata
     id="metadata14">
    <rdf:RDF>
      <cc:Work
         rdf:about="">
        <dc:format>image/svg+xml</dc:format>
        <dc:type
           rdf:resource="http://purl.org/dc/dcmitype/StillImage" />
        <dc:title />
      </cc:Work>
    </rdf:RDF>
  </metadata>
  <defs
     id="defs12" />
  <g
     class=""
     style="fill:#cf000f;stroke:#cf000f;fill-opacity:1;stroke-opacity:1"
     id="g6"
     transform="translate(-16,-16)">
    <path
       d="M 256,16 C 123.45,16 16,123.45 16,256 16,388.55 123.45,496 256,496 388.55,496 496,388.55 496,256 496,123.45 388.55,16 256,16 Z m 0,60 c 99.41,0 180,80.59 180,180 0,99.41 -80.59,180 -180,180 C 156.59,436 76,355.41 76,256 76,156.59 156.59,76 256,76 Z m -80.625,60 c -0.97,-0.005 -2.006,0.112 -3.063,0.313 v -0.032 c -18.297,3.436 -45.264,34.743 -33.375,46.626 l 73.157,73.125 -73.156,73.126 c -14.63,14.625 29.275,58.534 43.906,43.906 L 256,299.906 l 73.156,73.156 c 14.63,14.628 58.537,-29.28 43.906,-43.906 l -73.156,-73.125 73.156,-73.124 c 14.63,-14.625 -29.275,-58.5 -43.906,-43.875 L 256,212.157 182.844,139.032 c -2.06,-2.046 -4.56,-3.015 -7.47,-3.03 z"
       fill="#fff"
       fill-opacity="1"
       id="path4"
       style="fill:#cf000f;stroke:#cf000f;fill-opacity:1;stroke-opacity:1" />
  </g>
</svg>
