<?xml version="1.0" encoding="UTF-8" standalone="no"?>
<svg
   xmlns:dc="http://purl.org/dc/elements/1.1/"
   xmlns:cc="http://creativecommons.org/ns#"
   xmlns:rdf="http://www.w3.org/1999/02/22-rdf-syntax-ns#"
   xmlns:svg="http://www.w3.org/2000/svg"
   xmlns="http://www.w3.org/2000/svg"
   id="svg8"
   version="1.1"
   viewBox="0 0 512 512"
   style="height: 512px; width: 512px;">
  <metadata
     id="metadata14">
    <rdf:RDF>
      <cc:Work
         rdf:about="">
        <dc:format>image/svg+xml</dc:format>
        <dc:type
           rdf:resource="http://purl.org/dc/dcmitype/StillImage" />
        <dc:title></dc:title>
      </cc:Work>
    </rdf:RDF>
  </metadata>
  <defs
     id="defs12" />
  <path
     id="path2"
     fill-opacity="1"
     fill="#000"
     d="M0 0h512v512H0z" />
  <g
     id="g6"
     transform="matrix(2.2137661,0,0,1.8364886,-240.30527,-138.32538)"
     class="">
    <path
       id="path4"
       fill-opacity="1"
       fill="#ffffff"
       d="m 264.90229,89.137147 c -2.22745,0 -4.38125,0.65325 -6.68815,2.132 -2.30689,1.47875 -4.76688,3.8405 -7.60668,7.43 l -2.76975,3.500003 -2.76975,3.5 -2.87399,-3.36 -2.87399,-3.360003 c -3.11877,-3.64 -5.90793,-5.9625 -8.54074,-7.3425 -2.6328,-1.38 -5.10924,-1.8175 -7.60257,-1.6875 -2.49417,0.13 -5.20694,0.964 -8.11585,2.55162 -2.90892,1.58763 -6.01397,3.92888 -9.29268,7.07338 l -2.625,2.516003 -2.62499,2.516 -2.49248,-2.6715 -2.49248,-2.671503 c -3.75603,-4.0265 -7.23457,-6.6365 -10.5406,-8.19288 -3.30605,-1.55637 -6.43958,-2.05912 -9.50559,-1.87112 -2.23167,0.1365 -4.50533,0.70275 -6.79872,1.6705 -2.29339,0.96775 -4.60651,2.337 -6.9171,4.0795 l 15.68958,28.119873 18.571,34.56814 c 6.51818,4.7225 16.4364,7.97625 27.01604,8.68425 10.57964,0.708 21.8207,-1.12975 30.98455,-6.59025 l 18.32395,-33.27371 15.44254,-29.101303 c -3.16941,-1.5315 -6.17803,-3.082 -9.01002,-4.40025 -2.832,-1.31825 -5.48739,-2.40425 -7.95032,-3.00675 -0.89132,-0.218 -1.75014,-0.40675 -2.58638,-0.54812 -0.83625,-0.14138 -1.64991,-0.23538 -2.45092,-0.26388 -0.15024,-0.005 -0.30006,-0.007 -0.44956,-0.007 -0.1495,2.5e-4 -0.29869,0.007 -0.44766,0.007 h -8.4e-4 z m -76.28467,85.187013 c -7.60362,6.374 -23.43361,26.05149 -30.00411,37.15624 -6.5705,11.10475 -11.5895,24.63675 -14.392,40.71975 -2.718,15.5985 -1.93625,28.665 1.41937,39.62675 3.35563,10.96175 9.28513,19.81875 16.86263,26.99825 7.577,7.18 17.052,12.6225 27.52025,16.2325 10.46825,3.61 21.92975,5.3875 33.47975,5.2375 11.549,-0.14999 23.0825,-2.22749 33.665,-6.09599 10.5825,-3.8685 20.214,-9.52801 27.959,-16.84201 7.745,-7.313 13.8075,-16.177 17.3125,-26.933 3.505,-10.756 4.4525,-23.404 1.9675,-38.285 -2.566,-15.368 -7.16175,-28.39675 -13.2125,-39.202 -6.05075,-10.80525 -22.11915,-30.38699 -29.19736,-36.86099 -12.02687,7.5385 -25.56417,10.5065 -38.49881,9.88713 -12.93465,-0.61938 -25.26664,-4.82613 -34.88291,-11.63713 l 8.5e-4,-10e-4 z" />
  </g>
</svg>
