<?xml version="1.0" encoding="UTF-8" standalone="no"?>
<svg
   xmlns:dc="http://purl.org/dc/elements/1.1/"
   xmlns:cc="http://creativecommons.org/ns#"
   xmlns:rdf="http://www.w3.org/1999/02/22-rdf-syntax-ns#"
   xmlns:svg="http://www.w3.org/2000/svg"
   xmlns="http://www.w3.org/2000/svg"
   xmlns:xlink="http://www.w3.org/1999/xlink"
   xmlns:sodipodi="http://sodipodi.sourceforge.net/DTD/sodipodi-0.dtd"
   xmlns:inkscape="http://www.inkscape.org/namespaces/inkscape"
   inkscape:version="1.0 (4035a4fb49, 2020-05-01)"
   sodipodi:docname="cursed-star.svg"
   id="svg22"
   version="1.1"
   viewBox="0 0 527 527"
   width="527"
   height="527">
  <sodipodi:namedview
     inkscape:current-layer="svg22"
     inkscape:window-maximized="1"
     inkscape:window-y="-8"
     inkscape:window-x="-8"
     inkscape:cy="263.5"
     inkscape:cx="263.5"
     inkscape:zoom="1.3946869"
     showgrid="false"
     id="namedview37"
     inkscape:window-height="1137"
     inkscape:window-width="1920"
     inkscape:pageshadow="2"
     inkscape:pageopacity="0"
     guidetolerance="10"
     gridtolerance="10"
     objecttolerance="10"
     borderopacity="1"
     bordercolor="#666666"
     pagecolor="#ffffff" />
  <metadata
     id="metadata28">
    <rdf:RDF>
      <cc:Work
         rdf:about="">
        <dc:format>image/svg+xml</dc:format>
        <dc:type
           rdf:resource="http://purl.org/dc/dcmitype/StillImage" />
        <dc:title />
      </cc:Work>
    </rdf:RDF>
  </metadata>
  <defs
     id="defs26">
    <filter
       y="-1"
       x="-1"
       width="3"
       height="3"
       id="shadow-1">
      <feFlood
         id="feFlood2"
         result="flood"
         flood-color="rgba(252, 136, 252, 1)" />
      <feComposite
         id="feComposite4"
         result="composite"
         operator="atop"
         in2="SourceGraphic"
         in="flood" />
      <feGaussianBlur
         id="feGaussianBlur6"
         result="blur"
         stdDeviation="215"
         in="composite" />
      <feOffset
         id="feOffset8"
         result="offset"
         dy="0"
         dx="0" />
      <feComposite
         id="feComposite10"
         operator="over"
         in="SourceGraphic"
         in2="offset" />
    </filter>
    <radialGradient
       gradientUnits="userSpaceOnUse"
       gradientTransform="matrix(1.1113751,-1.1143928,1.1240641,1.1210202,-302.79749,259.45203)"
       r="238.313"
       fy="253.29128"
       fx="248.62892"
       cy="253.29128"
       cx="248.62892"
       id="radialGradient890"
       xlink:href="#linearGradient888" />
    <linearGradient
       id="linearGradient888">
      <stop
         id="stop884"
         offset="0"
         style="stop-color:#ffcc00;stop-opacity:1;" />
      <stop
         style="stop-color:#9797cb;stop-opacity:1"
         offset="0.25812325"
         id="stop892" />
      <stop
         id="stop886"
         offset="1"
         style="stop-color:#000080;stop-opacity:1" />
    </linearGradient>
    <radialGradient
       gradientUnits="userSpaceOnUse"
       gradientTransform="matrix(1.2279461,-0.01200172,0.02653979,2.7153321,-56.995806,-477.09024)"
       r="24.957472"
       fy="281.10904"
       fx="254.95511"
       cy="281.10904"
       cx="254.95511"
       id="radialGradient914"
       xlink:href="#linearGradient912" />
    <linearGradient
       id="linearGradient912">
      <stop
         id="stop908"
         offset="0"
         style="stop-color:#7fff2a;stop-opacity:1" />
      <stop
         id="stop910"
         offset="1"
         style="stop-color:#112b00;stop-opacity:1" />
    </linearGradient>
  </defs>
  <path
     style="fill:#000000;stroke:#000000;stroke-width:15;stroke-miterlimit:4;stroke-dasharray:none;stroke-opacity:1"
     id="path2"
     fill-opacity="1"
     fill="#000000"
     d="m 7.5,7.5 h 512 v 512 H 7.5 Z" />
  <g
     id="g20"
     transform="translate(456.5,141.5)"
     class=""
     text-anchor="middle"
     font-weight="bold"
     font-style="normal"
     font-size="140px"
     font-family="Arial, Helvetica, sans-serif">
    <text
       id="text12"
       stroke-width="35"
       stroke="rgba(255, 255, 255, 0)"><tspan
         id="tspan8"
         y="0"
         x="0" /><tspan
         id="tspan10"
         y="140"
         x="0" /></text>
    <text
       id="text18"
       fill="rgba(144, 19, 254, 1)"><tspan
         id="tspan14"
         y="0"
         x="0" /><tspan
         id="tspan16"
         y="140"
         x="0" /></text>
  </g>
  <text
     id="text855"
     y="106.41701"
     x="619.11359"
     style="font-style:normal;font-weight:normal;font-size:40px;line-height:1.25;font-family:sans-serif;letter-spacing:0px;word-spacing:0px;fill:#000000;fill-opacity:1;stroke:none"
     xml:space="preserve"><tspan
       y="106.41701"
       x="619.11359"
       id="tspan853" /></text>
  <text
     xml:space="preserve"
     style="font-style:normal;font-variant:normal;font-weight:bold;font-stretch:normal;font-size:160px;line-height:1.25;font-family:'IM FELL French Canon';-inkscape-font-specification:'IM FELL French Canon, Bold';font-variant-ligatures:normal;font-variant-caps:normal;font-variant-numeric:normal;font-variant-east-asian:normal;letter-spacing:0px;word-spacing:0px;fill:#bd10e0;fill-opacity:1;stroke:none"
     x="542.99768"
     y="143.97783"
     id="text859-7"><tspan
       id="tspan857-9"
       x="542.99768"
       y="143.97783" /></text>
  <g
     id="g6"
     transform="translate(4.217,19.813)"
     style="fill:#ffffff;fill-opacity:1;stroke:#ffffff"
     class="">
    <path
       style="fill:#ffffff;fill-opacity:1;stroke:#ffffff"
       id="path4"
       fill-opacity="1"
       fill="#000000"
       d="M 259.125,16.938 216.22,128.094 97.343,164.25 l 106.53,-4.22 -36.436,94.407 102.719,-148.187 50.22,64.406 -61.25,-153.72 z m 50.406,63.687 36.376,102.28 -102.344,-6.75 172.063,53.876 -46.5,67.126 128.47,-104.28 -116.94,-7.69 -71.124,-104.56 z m -123.467,98.97 -165.094,10.842 87.936,71.375 -0.375,127.125 27.75,-104.907 82.345,66.845 L 109.345,207.5 186.063,179.594 Z m 71.156,18.968 c -22.404,0 -44.817,25.943 -67.22,77.875 43.462,77.53 88.133,86.365 134.438,0 -22.403,-51.93 -44.816,-77.875 -67.22,-77.875 z m 0.405,15.687 c 11.05,8.62 19,30.54 19,56.438 0,25.896 -7.95,47.818 -19,56.437 -11.05,-8.62 -19,-30.54 -19,-56.438 0,-25.896 7.95,-47.818 19,-56.437 z m 82.53,10.594 5.19,180.22 L 266.75,383 407.22,470.438 376.812,359.125 450.375,255.655 367.5,325.031 340.156,224.845 Z m -187.215,84.186 -43.594,159.595 98.906,-61.53 120.656,39.436 -90.5,-58.217 87.094,-54.188 -171.22,56.53 -1.343,-81.624 z" />
  </g>
  <path
     id="path906"
     d="m 260.72364,227.97065 c -11.97073,11.24291 -17.36837,27.82289 -19.30385,43.77016 -2.37892,21.53693 -0.64432,44.53333 9.98276,63.81215 2.80277,4.24247 5.74691,9.09441 10.43945,11.38504 5.84573,0.36084 8.50954,-6.36359 11.61406,-10.21909 11.3344,-18.65613 13.2724,-41.55731 11.2118,-62.87071 -1.93597,-16.39018 -6.6928,-33.76135 -19.09252,-45.40408 -1.66318,-1.07335 -3.00923,-1.18404 -4.8517,-0.47347 z"
     style="fill:#000000;fill-opacity:1;stroke:#ffffff;stroke-width:5;stroke-miterlimit:4;stroke-dasharray:none;stroke-opacity:1" />
</svg>
