<?xml version="1.0" encoding="UTF-8" standalone="no"?>
<svg
   xmlns:dc="http://purl.org/dc/elements/1.1/"
   xmlns:cc="http://creativecommons.org/ns#"
   xmlns:rdf="http://www.w3.org/1999/02/22-rdf-syntax-ns#"
   xmlns:svg="http://www.w3.org/2000/svg"
   xmlns="http://www.w3.org/2000/svg"
   xmlns:sodipodi="http://sodipodi.sourceforge.net/DTD/sodipodi-0.dtd"
   xmlns:inkscape="http://www.inkscape.org/namespaces/inkscape"
   inkscape:version="1.0 (4035a4fb49, 2020-05-01)"
   height="476.28101"
   width="477.28101"
   sodipodi:docname="frozen-orb.svg"
   id="svg8"
   version="1.1"
   viewBox="0 0 477.28101 476.28101">
  <metadata
     id="metadata14">
    <rdf:RDF>
      <cc:Work
         rdf:about="">
        <dc:format>image/svg+xml</dc:format>
        <dc:type
           rdf:resource="http://purl.org/dc/dcmitype/StillImage" />
        <dc:title></dc:title>
      </cc:Work>
    </rdf:RDF>
  </metadata>
  <defs
     id="defs12" />
  <sodipodi:namedview
     inkscape:current-layer="svg8"
     inkscape:window-maximized="1"
     inkscape:window-y="-8"
     inkscape:window-x="-8"
     inkscape:cy="225.062"
     inkscape:cx="223.188"
     inkscape:zoom="1.4355469"
     fit-margin-bottom="0"
     fit-margin-right="0"
     fit-margin-left="0"
     fit-margin-top="0"
     showgrid="false"
     id="namedview10"
     inkscape:window-height="1137"
     inkscape:window-width="1920"
     inkscape:pageshadow="2"
     inkscape:pageopacity="0"
     guidetolerance="10"
     gridtolerance="10"
     objecttolerance="10"
     borderopacity="1"
     bordercolor="#666666"
     pagecolor="#ffffff" />
  <g
     transform="translate(-16.406,-15.469)"
     id="g6"
     style="fill:#000000"
     class="">
    <path
       style="fill:#000000"
       id="path4"
       fill-opacity="1"
       fill="#fff"
       d="m 255.063,15.47 c -131.508,0 -238.657,107.12 -238.657,238.624 0,131.504 107.152,237.656 238.656,237.656 131.505,0 238.625,-106.15 238.625,-237.656 C 493.687,122.59 386.57,15.469 255.062,15.469 Z m 0,18.343 c 121.407,0 219.28,98.877 219.28,220.28 0,121.408 -97.877,219.313 -219.28,219.313 -121.404,0 -219.313,-97.91 -219.313,-219.312 0,-121.404 97.905,-220.28 219.313,-220.28 z m -0.032,19.28 c -110.986,0 -200.75,89.763 -200.75,200.75 0,110.988 89.764,200.75 200.75,200.75 110.99,0 200.75,-89.762 200.75,-200.75 0,-110.987 -89.76,-200.75 -200.75,-200.75 z m -0.843,16.532 12.313,62.72 51,-21.095 -46.094,46.094 6.22,31.687 -12.5,3.345 7.873,29.344 29.313,-7.876 -3.25,-12.094 31.343,-10.72 16.813,-62.81 7.217,54.56 60.313,-20.624 -48.313,42.156 42.375,33 -61.625,-16.187 -24.25,21.156 -10.03,-10.03 -21.47,21.5 21.47,21.47 9.218,-9.22 24.688,21.563 62.688,-16.784 -43.563,33.47 48.22,42.063 -60.97,-20.844 -7.406,53.186 -16.81,-61.5 -30.22,-10.312 3.563,-13.313 L 273,285.657 265.125,315 l 12.5,3.344 -6.22,31.625 46.095,46.06 -51,-21.06 -12.313,62.75 -12.375,-63.033 -49.593,20.125 44.686,-45.093 -6.125,-31.19 13.157,-3.53 -7.875,-29.344 -29.343,7.875 3.624,13.533 -29.28,10.03 L 164.28,378.5 156.906,325.344 96,346.188 l 48.188,-42.063 -43.594,-33.5 62.75,16.813 24.03,-20.97 8.75,8.75 21.47,-21.468 -21.47,-21.5 -9.593,9.594 -23.56,-20.563 -61.72,16.22 42.47,-33.03 -48.345,-42.19 60.28,20.626 7.19,-54.53 16.81,62.75 30.376,10.374 -3.31,12.344 29.343,7.875 7.875,-29.345 -13.188,-3.53 6.156,-31.25 -44.687,-45.126 49.593,20.124 12.375,-62.97 z" />
  </g>
</svg>
