<?xml version="1.0" encoding="UTF-8" standalone="no"?>
<svg
   xmlns:dc="http://purl.org/dc/elements/1.1/"
   xmlns:cc="http://creativecommons.org/ns#"
   xmlns:rdf="http://www.w3.org/1999/02/22-rdf-syntax-ns#"
   xmlns:svg="http://www.w3.org/2000/svg"
   xmlns="http://www.w3.org/2000/svg"
   xmlns:sodipodi="http://sodipodi.sourceforge.net/DTD/sodipodi-0.dtd"
   xmlns:inkscape="http://www.inkscape.org/namespaces/inkscape"
   height="527"
   width="527"
   id="svg22"
   version="1.1"
   viewBox="0 0 527 527"
   sodipodi:docname="magic-swirl.svg"
   inkscape:version="1.0 (4035a4fb49, 2020-05-01)">
  <sodipodi:namedview
     inkscape:document-rotation="0"
     pagecolor="#ffffff"
     bordercolor="#666666"
     borderopacity="1"
     objecttolerance="10"
     gridtolerance="10"
     guidetolerance="10"
     inkscape:pageopacity="0"
     inkscape:pageshadow="2"
     inkscape:window-width="1920"
     inkscape:window-height="1137"
     id="namedview21"
     showgrid="false"
     inkscape:zoom="1.3946869"
     inkscape:cx="263.5"
     inkscape:cy="263.5"
     inkscape:window-x="-8"
     inkscape:window-y="-8"
     inkscape:window-maximized="1"
     inkscape:current-layer="svg22" />
  <metadata
     id="metadata28">
    <rdf:RDF>
      <cc:Work
         rdf:about="">
        <dc:format>image/svg+xml</dc:format>
        <dc:type
           rdf:resource="http://purl.org/dc/dcmitype/StillImage" />
        <dc:title />
      </cc:Work>
    </rdf:RDF>
  </metadata>
  <defs
     id="defs26" />
  <path
     style="fill:#000000;fill-opacity:1;stroke:#000000;stroke-width:15;stroke-miterlimit:4;stroke-dasharray:none;stroke-opacity:1"
     id="path2"
     fill-opacity="1"
     fill="#000000"
     d="m 7.5,7.5 h 512 v 512 H 7.5 Z" />
  <g
     id="g20"
     transform="translate(456.5,141.5)"
     class=""
     text-anchor="middle"
     font-weight="bold"
     font-style="normal"
     font-size="140px"
     font-family="Arial, Helvetica, sans-serif">
    <text
       id="text12"
       stroke-width="35"
       stroke="rgba(255, 255, 255, 0)"><tspan
         id="tspan8"
         y="0"
         x="0" /><tspan
         id="tspan10"
         y="140"
         x="0" /></text>
    <text
       id="text18"
       fill="rgba(144, 19, 254, 1)"><tspan
         id="tspan14"
         y="0"
         x="0" /><tspan
         id="tspan16"
         y="140"
         x="0" /></text>
  </g>
  <text
     id="text855"
     y="106.41701"
     x="619.11359"
     style="font-style:normal;font-weight:normal;font-size:40px;line-height:1.25;font-family:sans-serif;letter-spacing:0px;word-spacing:0px;fill:#000000;fill-opacity:1;stroke:none"
     xml:space="preserve"><tspan
       y="106.41701"
       x="619.11359"
       id="tspan853" /></text>
  <text
     xml:space="preserve"
     style="font-style:normal;font-variant:normal;font-weight:bold;font-stretch:normal;font-size:160px;line-height:1.25;font-family:'IM FELL French Canon';-inkscape-font-specification:'IM FELL French Canon, Bold';font-variant-ligatures:normal;font-variant-caps:normal;font-variant-numeric:normal;font-variant-east-asian:normal;letter-spacing:0px;word-spacing:0px;fill:#bd10e0;fill-opacity:1;stroke:none"
     x="542.99768"
     y="143.97783"
     id="text859-7"><tspan
       id="tspan857-9"
       x="542.99768"
       y="143.97783" /></text>
  <g
     transform="matrix(1.1590804,0,0,1.1590804,-32.237853,-30.00955)"
     class=""
     id="g6"
     style="fill:#ffffff">
    <path
       d="M 247.79,18.734 C 137.967,17.596 19.874,96.94 19.73,244.53 l 21.403,-51.395 c -9.485,72.28 -7.75,147.236 38.79,202.502 L 38.2,377.355 c 39.24,69.774 126.333,90.976 200.855,92.51 C 124.11,429.9 67.87,342.277 63.912,246.492 57.19,34.712 324.57,28.798 404.692,170.722 c -3.417,-19.492 -8.623,-38.426 -15.618,-56.11 77.406,89.155 59.293,214.875 -21.29,253.036 -24.25,3.95 -48.93,12.06 -60.954,19 -58.548,33.802 -6.27,126.536 53.225,92.188 9.44,-5.45 23.404,-17.303 36.494,-31.352 64.36,-59.52 98.1,-118.24 93.108,-188.94 -6.52,29.1 -19.175,57.904 -35.623,84.683 63.158,-146.822 7.956,-263.89 -144.838,-301.354 12.097,5.835 23.503,13.63 33.873,23.36 -57.415,-23.752 -131.123,-22.62 -186.884,3.505 28.066,-26.2 64.776,-43.73 102.2,-49.642 -3.52,-0.205 -7.054,-0.325 -10.597,-0.362 z m -19.74,160.202 -19.843,100.566 c -2.958,3.81 -5.64,6.852 -9.033,9.94 l -25.688,-49.096 -22.705,11.93 31.37,60.945 c 4.48,11.474 10.02,20.68 15.162,28.524 28.063,42.803 64.547,35.252 95.303,9.555 l 87.28,-48.452 -12.71,-22.498 -66.136,36.94 c -1.517,-3.154 -3.266,-6.552 -5.056,-9.51 l 67.818,-64.96 -17.54,-18.695 -66.47,63.762 c -2.356,-2.318 -4.238,-4.527 -6.765,-6.54 l 45.084,-78.085 -22.733,-13.127 -45.864,78.297 c -3.79,-1.31 -7.72,-2.2 -11.595,-2.745 l 15.656,-81.896 -25.533,-4.854 z"
       fill="#48baff"
       fill-opacity="1"
       transform="matrix(0.8,0,0,0.8,51.2,51.2)"
       id="path4"
       style="fill:#ffffff" />
  </g>
</svg>
