<?xml version="1.0" encoding="UTF-8" standalone="no"?>
<svg
   xmlns:dc="http://purl.org/dc/elements/1.1/"
   xmlns:cc="http://creativecommons.org/ns#"
   xmlns:rdf="http://www.w3.org/1999/02/22-rdf-syntax-ns#"
   xmlns:svg="http://www.w3.org/2000/svg"
   xmlns="http://www.w3.org/2000/svg"
   height="527"
   width="527"
   id="svg22"
   version="1.1"
   viewBox="0 0 527 527">
  <metadata
     id="metadata28">
    <rdf:RDF>
      <cc:Work
         rdf:about="">
        <dc:format>image/svg+xml</dc:format>
        <dc:type
           rdf:resource="http://purl.org/dc/dcmitype/StillImage" />
        <dc:title></dc:title>
      </cc:Work>
    </rdf:RDF>
  </metadata>
  <defs
     id="defs26">
    <rect
       x="527.68291"
       y="654.56209"
       width="77.303867"
       height="90.748017"
       id="rect987" />
  </defs>
  <path
     style="fill-opacity:1;stroke:#784421;stroke-width:15;stroke-miterlimit:4;stroke-dasharray:none;stroke-opacity:1;fill:#ffffff"
     id="path2"
     fill-opacity="1"
     fill="#000000"
     d="m 7.5,7.5 h 512 v 512 H 7.5 Z" />
  <g
     id="g20"
     transform="translate(456.5,141.5)"
     class=""
     text-anchor="middle"
     font-weight="bold"
     font-style="normal"
     font-size="140px"
     font-family="Arial, Helvetica, sans-serif">
    <text
       id="text12"
       stroke-width="35"
       stroke="rgba(255, 255, 255, 0)"><tspan
         id="tspan8"
         y="0"
         x="0" /><tspan
         id="tspan10"
         y="140"
         x="0" /></text>
    <text
       id="text18"
       fill="rgba(144, 19, 254, 1)"><tspan
         id="tspan14"
         y="0"
         x="0" /><tspan
         id="tspan16"
         y="140"
         x="0" /></text>
  </g>
  <text
     id="text855"
     y="106.41701"
     x="619.11359"
     style="font-style:normal;font-weight:normal;font-size:40px;line-height:1.25;font-family:sans-serif;letter-spacing:0px;word-spacing:0px;fill:#000000;fill-opacity:1;stroke:none"
     xml:space="preserve"><tspan
       y="106.41701"
       x="619.11359"
       id="tspan853" /></text>
  <text
     id="text859"
     y="140.91827"
     x="422.28372"
     style="font-style:normal;font-variant:normal;font-weight:bold;font-stretch:normal;font-size:160px;line-height:1.25;font-family:'Comic Sans MS';-inkscape-font-specification:'Comic Sans MS, Bold';font-variant-ligatures:normal;font-variant-caps:normal;font-variant-numeric:normal;font-variant-east-asian:normal;letter-spacing:0px;word-spacing:0px;fill:#784421;fill-opacity:1;stroke:#784421;stroke-opacity:1"
     xml:space="preserve"><tspan
       y="140.91827"
       x="422.28372"
       id="tspan857"
       style="fill:#784421;fill-opacity:1;stroke:#784421;stroke-opacity:1">1</tspan></text>
  <text
     xml:space="preserve"
     style="font-style:normal;font-variant:normal;font-weight:bold;font-stretch:normal;font-size:160px;line-height:1.25;font-family:'IM FELL French Canon';-inkscape-font-specification:'IM FELL French Canon, Bold';font-variant-ligatures:normal;font-variant-caps:normal;font-variant-numeric:normal;font-variant-east-asian:normal;letter-spacing:0px;word-spacing:0px;fill:#bd10e0;fill-opacity:1;stroke:none"
     x="542.99768"
     y="143.97783"
     id="text859-7"><tspan
       id="tspan857-9"
       x="542.99768"
       y="143.97783" /></text>
  <ellipse
     style="fill:#000000;fill-opacity:0;stroke:none;stroke-miterlimit:10"
     id="path879"
     cx="290.5112"
     cy="794.4696"
     rx="144.4951"
     ry="130.2991" />
  <text
     xml:space="preserve"
     id="text985"
     style="fill:black;fill-opacity:1;stroke:none;font-family:sans-serif;font-style:normal;font-weight:normal;font-size:40px;line-height:1.25;letter-spacing:0px;word-spacing:0px;white-space:pre;shape-inside:url(#rect987);" />
  <path
     id="rect993"
     style="fill:#784421;fill-opacity:1;stroke:none;stroke-width:0.73401;stroke-miterlimit:10;stroke-opacity:1"
     d="M 97.899413,97.900392 V 429.09961 H 429.10059 V 97.900392 Z M 263.48926,113.9668 h 0.002 c 83.71788,0.001 151.59375,67.85609 151.59375,151.57421 0,71.62013 -49.66776,131.63969 -116.43945,147.49219 -19.94106,-11.59559 -18.82369,-26.7711 -15.10352,-35.63086 8.84326,-21.05876 12.85257,-40.15421 12.54493,-55.99219 23.08554,-16.42554 45.72709,-35.7009 67.29882,-58.03515 0.20796,-9.75168 -1.81497,-18.73074 -6.00586,-27.35547 -49.61993,53.79762 -61.95015,-31.18429 -8.89062,-44.52344 3.01113,-14.48062 -1.25267,-27.54099 -8.29492,-38.20703 -26.50204,16.27832 -51.25228,38.87002 -71.38281,56.61133 -14.22183,-4.4114 -41.64159,10.34131 -59.18946,24.61133 -33.57069,3.83967 -70.62669,28.9784 -91.45703,47.30859 28.67736,12.97935 48.91444,1.06635 72.51758,-2.64062 -20.82242,7.16967 -44.50047,18.37101 -71.00977,34.3496 -5.02933,-15.07941 -7.75781,-31.21943 -7.75781,-47.98828 0,-83.71812 67.85634,-151.57315 151.57422,-151.57421 z m 2.1875,108.51757 h 0.002 c 1.24842,4.36056 -1.4113,12.16594 -5.50976,16.58789 -7.84835,-2.16146 -16.78073,-4.08822 -24.75782,-4.06445 8.61549,-6.55041 18.49113,-11.05781 30.26563,-12.52344 z" />
  <g
     id="g6"
     transform="matrix(0.66019069,0,0,0.66019069,75.005794,81.49101)"
     class=""
     style="fill:#ffffff" />
</svg>
