<?xml version="1.0" encoding="UTF-8" standalone="no"?>
<svg
   xmlns:dc="http://purl.org/dc/elements/1.1/"
   xmlns:cc="http://creativecommons.org/ns#"
   xmlns:rdf="http://www.w3.org/1999/02/22-rdf-syntax-ns#"
   xmlns:svg="http://www.w3.org/2000/svg"
   xmlns="http://www.w3.org/2000/svg"
   width="28.221207mm"
   height="28.221207mm"
   viewBox="0 0 28.221207 28.221207"
   version="1.1"
   id="svg1193">
  <defs
     id="defs1187" />
  <metadata
     id="metadata1190">
    <rdf:RDF>
      <cc:Work
         rdf:about="">
        <dc:format>image/svg+xml</dc:format>
        <dc:type
           rdf:resource="http://purl.org/dc/dcmitype/StillImage" />
        <dc:title></dc:title>
      </cc:Work>
    </rdf:RDF>
  </metadata>
  <rect
     x="0.70552963"
     y="0.70552963"
     width="26.810148"
     height="26.810148"
     ry="2.6810148"
     fill="#225500"
     stroke="#000000"
     stroke-width="1.41106"
     id="rect298" />
  <text
     x="10.358322"
     y="11.432793"
     fill="#f7f5f3"
     font-family="'IM FELL Great Primer'"
     font-size="50.7981px"
     letter-spacing="0px"
     word-spacing="0px"
     style="line-height:125%;stroke-width:0.282213"
     line-height="125%"
     xml:space="preserve"
     id="text302"><tspan
       style="stroke-width:0.301016"
       x="10.358322"
       y="11.432793"
       fill="#f7f5f3"
       font-family="'IM FELL Great Primer'"
       font-size="12.6996px"
       id="tspan300">6</tspan></text>
  <g
     transform="matrix(0.28221208,0,0,0.28221208,-315.25912,-116.72348)"
     fill="#f7f5f3"
     shape-rendering="geometricPrecision"
     stroke-width="11.075"
     id="g312">
    <g
       transform="matrix(0.059839,-0.059877,-0.059839,-0.059877,1183,511.79)"
       image-rendering="optimizeQuality"
       id="g306">
      <path
         class="fil0"
         d="M 126,0 C 108,22 100,59 98,87 l -3,476 c -32,1 -64,5 -95,12 v 25 l 96,-1 10,102 c -10,7 -17,18 -17,30 0,21 17,37 37,37 20,0 36,-16 36,-37 0,-12 -6,-23 -16,-30 l 10,-102 95,1 v -25 c -31,-7 -62,-11 -94,-12 L 154,87 C 151,59 144,22 126,0 Z"
         fill="#f7f5f3"
         stroke-width="11.075"
         id="path304" />
    </g>
    <g
       transform="matrix(-0.059839,-0.059877,0.059839,-0.059877,1151.2,511.79)"
       image-rendering="optimizeQuality"
       id="g310">
      <path
         class="fil0"
         d="M 126,0 C 108,22 100,59 98,87 l -3,476 c -32,1 -64,5 -95,12 v 25 l 96,-1 10,102 c -10,7 -17,18 -17,30 0,21 17,37 37,37 20,0 36,-16 36,-37 0,-12 -6,-23 -16,-30 l 10,-102 95,1 v -25 c -31,-7 -62,-11 -94,-12 L 154,87 C 151,59 144,22 126,0 Z"
         fill="#f7f5f3"
         stroke-width="11.075"
         id="path308" />
    </g>
  </g>
</svg>
