<?xml version="1.0" encoding="UTF-8" standalone="no"?>
<svg
   xmlns:dc="http://purl.org/dc/elements/1.1/"
   xmlns:cc="http://creativecommons.org/ns#"
   xmlns:rdf="http://www.w3.org/1999/02/22-rdf-syntax-ns#"
   xmlns:svg="http://www.w3.org/2000/svg"
   xmlns="http://www.w3.org/2000/svg"
   width="28.221207mm"
   height="28.221207mm"
   viewBox="0 0 28.221207 28.221207"
   version="1.1"
   id="svg1193">
  <defs
     id="defs1187" />
  <metadata
     id="metadata1190">
    <rdf:RDF>
      <cc:Work
         rdf:about="">
        <dc:format>image/svg+xml</dc:format>
        <dc:type
           rdf:resource="http://purl.org/dc/dcmitype/StillImage" />
        <dc:title></dc:title>
      </cc:Work>
    </rdf:RDF>
  </metadata>
  <rect
     x="0.70552963"
     y="0.70552963"
     width="26.810148"
     height="26.810148"
     ry="2.6810148"
     fill="#d45500"
     stroke="#000000"
     stroke-width="1.41106"
     id="rect646" />
  <text
     x="8.2159128"
     y="10.273214"
     fill="#000000"
     font-family="Arial"
     font-size="50.7981px"
     letter-spacing="0px"
     word-spacing="0px"
     style="line-height:125%;stroke-width:0.282213"
     line-height="125%"
     xml:space="preserve"
     id="text650"><tspan
       style="stroke-width:0.301016"
       x="8.2159128"
       y="10.273214"
       fill="#000000"
       font-family="'IM FELL Great Primer'"
       font-size="12.6996px"
       id="tspan648">12</tspan></text>
  <g
     transform="matrix(0.28221208,0,0,0.28221208,-382.14338,-208.46442)"
     shape-rendering="geometricPrecision"
     stroke-width="23.073"
     id="g692">
    <g
       transform="matrix(0.48,0,0,0.48,829.51,587.27)"
       id="g660">
      <g
         transform="matrix(0.059839,-0.059877,-0.059839,-0.059877,1183,511.79)"
         image-rendering="optimizeQuality"
         id="g654">
        <path
           class="fil0"
           d="M 126,0 C 108,22 100,59 98,87 l -3,476 c -32,1 -64,5 -95,12 v 25 l 96,-1 10,102 c -10,7 -17,18 -17,30 0,21 17,37 37,37 20,0 36,-16 36,-37 0,-12 -6,-23 -16,-30 l 10,-102 95,1 v -25 c -31,-7 -62,-11 -94,-12 L 154,87 C 151,59 144,22 126,0 Z"
           stroke-width="23.073"
           id="path652" />
      </g>
      <g
         transform="matrix(-0.059839,-0.059877,0.059839,-0.059877,1151.2,511.79)"
         image-rendering="optimizeQuality"
         id="g658">
        <path
           class="fil0"
           d="M 126,0 C 108,22 100,59 98,87 l -3,476 c -32,1 -64,5 -95,12 v 25 l 96,-1 10,102 c -10,7 -17,18 -17,30 0,21 17,37 37,37 20,0 36,-16 36,-37 0,-12 -6,-23 -16,-30 l 10,-102 95,1 v -25 c -31,-7 -62,-11 -94,-12 L 154,87 C 151,59 144,22 126,0 Z"
           stroke-width="23.073"
           id="path656" />
      </g>
    </g>
    <g
       transform="matrix(0.48,0,0,0.48,818.26,564.77)"
       id="g670">
      <g
         transform="matrix(0.059839,-0.059877,-0.059839,-0.059877,1183,511.79)"
         image-rendering="optimizeQuality"
         id="g664">
        <path
           class="fil0"
           d="M 126,0 C 108,22 100,59 98,87 l -3,476 c -32,1 -64,5 -95,12 v 25 l 96,-1 10,102 c -10,7 -17,18 -17,30 0,21 17,37 37,37 20,0 36,-16 36,-37 0,-12 -6,-23 -16,-30 l 10,-102 95,1 v -25 c -31,-7 -62,-11 -94,-12 L 154,87 C 151,59 144,22 126,0 Z"
           stroke-width="23.073"
           id="path662" />
      </g>
      <g
         transform="matrix(-0.059839,-0.059877,0.059839,-0.059877,1151.2,511.79)"
         image-rendering="optimizeQuality"
         id="g668">
        <path
           class="fil0"
           d="M 126,0 C 108,22 100,59 98,87 l -3,476 c -32,1 -64,5 -95,12 v 25 l 96,-1 10,102 c -10,7 -17,18 -17,30 0,21 17,37 37,37 20,0 36,-16 36,-37 0,-12 -6,-23 -16,-30 l 10,-102 95,1 v -25 c -31,-7 -62,-11 -94,-12 L 154,87 C 151,59 144,22 126,0 Z"
           stroke-width="23.073"
           id="path666" />
      </g>
    </g>
    <g
       transform="matrix(0.48,0,0,0.48,858.26,587.27)"
       id="g680">
      <g
         transform="matrix(0.059839,-0.059877,-0.059839,-0.059877,1183,511.79)"
         image-rendering="optimizeQuality"
         id="g674">
        <path
           class="fil0"
           d="M 126,0 C 108,22 100,59 98,87 l -3,476 c -32,1 -64,5 -95,12 v 25 l 96,-1 10,102 c -10,7 -17,18 -17,30 0,21 17,37 37,37 20,0 36,-16 36,-37 0,-12 -6,-23 -16,-30 l 10,-102 95,1 v -25 c -31,-7 -62,-11 -94,-12 L 154,87 C 151,59 144,22 126,0 Z"
           stroke-width="23.073"
           id="path672" />
      </g>
      <g
         transform="matrix(-0.059839,-0.059877,0.059839,-0.059877,1151.2,511.79)"
         image-rendering="optimizeQuality"
         id="g678">
        <path
           class="fil0"
           d="M 126,0 C 108,22 100,59 98,87 l -3,476 c -32,1 -64,5 -95,12 v 25 l 96,-1 10,102 c -10,7 -17,18 -17,30 0,21 17,37 37,37 20,0 36,-16 36,-37 0,-12 -6,-23 -16,-30 l 10,-102 95,1 v -25 c -31,-7 -62,-11 -94,-12 L 154,87 C 151,59 144,22 126,0 Z"
           stroke-width="23.073"
           id="path676" />
      </g>
    </g>
    <g
       transform="matrix(0.48,0,0,0.48,869.51,564.77)"
       id="g690">
      <g
         transform="matrix(0.059839,-0.059877,-0.059839,-0.059877,1183,511.79)"
         image-rendering="optimizeQuality"
         id="g684">
        <path
           class="fil0"
           d="M 126,0 C 108,22 100,59 98,87 l -3,476 c -32,1 -64,5 -95,12 v 25 l 96,-1 10,102 c -10,7 -17,18 -17,30 0,21 17,37 37,37 20,0 36,-16 36,-37 0,-12 -6,-23 -16,-30 l 10,-102 95,1 v -25 c -31,-7 -62,-11 -94,-12 L 154,87 C 151,59 144,22 126,0 Z"
           stroke-width="23.073"
           id="path682" />
      </g>
      <g
         transform="matrix(-0.059839,-0.059877,0.059839,-0.059877,1151.2,511.79)"
         image-rendering="optimizeQuality"
         id="g688">
        <path
           class="fil0"
           d="M 126,0 C 108,22 100,59 98,87 l -3,476 c -32,1 -64,5 -95,12 v 25 l 96,-1 10,102 c -10,7 -17,18 -17,30 0,21 17,37 37,37 20,0 36,-16 36,-37 0,-12 -6,-23 -16,-30 l 10,-102 95,1 v -25 c -31,-7 -62,-11 -94,-12 L 154,87 C 151,59 144,22 126,0 Z"
           stroke-width="23.073"
           id="path686" />
      </g>
    </g>
  </g>
</svg>
