<?xml version="1.0" encoding="UTF-8" standalone="no"?>
<svg
   xmlns:dc="http://purl.org/dc/elements/1.1/"
   xmlns:cc="http://creativecommons.org/ns#"
   xmlns:rdf="http://www.w3.org/1999/02/22-rdf-syntax-ns#"
   xmlns:svg="http://www.w3.org/2000/svg"
   xmlns="http://www.w3.org/2000/svg"
   width="28.221207mm"
   height="28.221207mm"
   viewBox="0 0 28.221207 28.221207"
   version="1.1"
   id="svg1193">
  <defs
     id="defs1187" />
  <metadata
     id="metadata1190">
    <rdf:RDF>
      <cc:Work
         rdf:about="">
        <dc:format>image/svg+xml</dc:format>
        <dc:type
           rdf:resource="http://purl.org/dc/dcmitype/StillImage" />
        <dc:title></dc:title>
      </cc:Work>
    </rdf:RDF>
  </metadata>
  <rect
     x="0.70552963"
     y="0.70552963"
     width="26.810148"
     height="26.810148"
     ry="2.6810148"
     fill="#0088aa"
     stroke="#000000"
     stroke-width="1.41106"
     id="rect530" />
  <g
     transform="matrix(0.28221208,0,0,0.28221208,-314.41248,-171.42408)"
     fill="#fce205"
     id="g568">
    <text
       x="1142.2952"
       y="643.83246"
       font-family="'IM FELL Great Primer'"
       font-size="180px"
       letter-spacing="0px"
       word-spacing="0px"
       style="line-height:125%"
       line-height="125%"
       xml:space="preserve"
       id="text534"><tspan
         x="1142.2952"
         y="643.83246"
         fill="#fce205"
         font-family="'IM FELL Great Primer'"
         font-size="45px"
         id="tspan532">10</tspan></text>
    <g
       shape-rendering="geometricPrecision"
       stroke-width="19.777"
       id="g566">
      <g
         transform="matrix(0.56,0,0,0.56,510.52,413.8)"
         id="g544">
        <g
           transform="matrix(0.059839,-0.059877,-0.059839,-0.059877,1183,511.79)"
           image-rendering="optimizeQuality"
           id="g538">
          <path
             class="fil0"
             d="M 126,0 C 108,22 100,59 98,87 l -3,476 c -32,1 -64,5 -95,12 v 25 l 96,-1 10,102 c -10,7 -17,18 -17,30 0,21 17,37 37,37 20,0 36,-16 36,-37 0,-12 -6,-23 -16,-30 l 10,-102 95,1 v -25 c -31,-7 -62,-11 -94,-12 L 154,87 C 151,59 144,22 126,0 Z"
             fill="#fce205"
             stroke-width="19.777"
             id="path536" />
        </g>
        <g
           transform="matrix(-0.059839,-0.059877,0.059839,-0.059877,1151.2,511.79)"
           image-rendering="optimizeQuality"
           id="g542">
          <path
             class="fil0"
             d="M 126,0 C 108,22 100,59 98,87 l -3,476 c -32,1 -64,5 -95,12 v 25 l 96,-1 10,102 c -10,7 -17,18 -17,30 0,21 17,37 37,37 20,0 36,-16 36,-37 0,-12 -6,-23 -16,-30 l 10,-102 95,1 v -25 c -31,-7 -62,-11 -94,-12 L 154,87 C 151,59 144,22 126,0 Z"
             fill="#fce205"
             stroke-width="19.777"
             id="path540" />
        </g>
      </g>
      <g
         transform="matrix(0.56,0,0,0.56,538.02,400.68)"
         id="g554">
        <g
           transform="matrix(0.059839,-0.059877,-0.059839,-0.059877,1183,511.79)"
           image-rendering="optimizeQuality"
           id="g548">
          <path
             class="fil0"
             d="M 126,0 C 108,22 100,59 98,87 l -3,476 c -32,1 -64,5 -95,12 v 25 l 96,-1 10,102 c -10,7 -17,18 -17,30 0,21 17,37 37,37 20,0 36,-16 36,-37 0,-12 -6,-23 -16,-30 l 10,-102 95,1 v -25 c -31,-7 -62,-11 -94,-12 L 154,87 C 151,59 144,22 126,0 Z"
             fill="#fce205"
             stroke-width="19.777"
             id="path546" />
        </g>
        <g
           transform="matrix(-0.059839,-0.059877,0.059839,-0.059877,1151.2,511.79)"
           image-rendering="optimizeQuality"
           id="g552">
          <path
             class="fil0"
             d="M 126,0 C 108,22 100,59 98,87 l -3,476 c -32,1 -64,5 -95,12 v 25 l 96,-1 10,102 c -10,7 -17,18 -17,30 0,21 17,37 37,37 20,0 36,-16 36,-37 0,-12 -6,-23 -16,-30 l 10,-102 95,1 v -25 c -31,-7 -62,-11 -94,-12 L 154,87 C 151,59 144,22 126,0 Z"
             fill="#fce205"
             stroke-width="19.777"
             id="path550" />
        </g>
      </g>
      <g
         transform="matrix(0.56,0,0,0.56,483.02,400.68)"
         id="g564">
        <g
           transform="matrix(0.059839,-0.059877,-0.059839,-0.059877,1183,511.79)"
           image-rendering="optimizeQuality"
           id="g558">
          <path
             class="fil0"
             d="M 126,0 C 108,22 100,59 98,87 l -3,476 c -32,1 -64,5 -95,12 v 25 l 96,-1 10,102 c -10,7 -17,18 -17,30 0,21 17,37 37,37 20,0 36,-16 36,-37 0,-12 -6,-23 -16,-30 l 10,-102 95,1 v -25 c -31,-7 -62,-11 -94,-12 L 154,87 C 151,59 144,22 126,0 Z"
             fill="#fce205"
             stroke-width="19.777"
             id="path556" />
        </g>
        <g
           transform="matrix(-0.059839,-0.059877,0.059839,-0.059877,1151.2,511.79)"
           image-rendering="optimizeQuality"
           id="g562">
          <path
             class="fil0"
             d="M 126,0 C 108,22 100,59 98,87 l -3,476 c -32,1 -64,5 -95,12 v 25 l 96,-1 10,102 c -10,7 -17,18 -17,30 0,21 17,37 37,37 20,0 36,-16 36,-37 0,-12 -6,-23 -16,-30 l 10,-102 95,1 v -25 c -31,-7 -62,-11 -94,-12 L 154,87 C 151,59 144,22 126,0 Z"
             fill="#fce205"
             stroke-width="19.777"
             id="path560" />
        </g>
      </g>
    </g>
  </g>
</svg>
