<?xml version="1.0" encoding="UTF-8" standalone="no"?>
<svg
   xmlns:dc="http://purl.org/dc/elements/1.1/"
   xmlns:cc="http://creativecommons.org/ns#"
   xmlns:rdf="http://www.w3.org/1999/02/22-rdf-syntax-ns#"
   xmlns:svg="http://www.w3.org/2000/svg"
   xmlns="http://www.w3.org/2000/svg"
   width="28.221207mm"
   height="28.221207mm"
   viewBox="0 0 28.221207 28.221207"
   version="1.1"
   id="svg1193">
  <defs
     id="defs1187" />
  <metadata
     id="metadata1190">
    <rdf:RDF>
      <cc:Work
         rdf:about="">
        <dc:format>image/svg+xml</dc:format>
        <dc:type
           rdf:resource="http://purl.org/dc/dcmitype/StillImage" />
        <dc:title></dc:title>
      </cc:Work>
    </rdf:RDF>
  </metadata>
  <rect
     x="0.70552963"
     y="0.70552963"
     width="26.810148"
     height="26.810148"
     ry="2.6810148"
     fill="#225500"
     stroke="#000000"
     stroke-width="1.41106"
     id="rect394" />
  <g
     transform="matrix(0.28221208,0,0,0.28221208,-246.67876,-134.38375)"
     fill="#f7f5f3"
     id="g420">
    <text
       x="912.26624"
       y="516.12006"
       font-family="'IM FELL Great Primer'"
       font-size="180px"
       letter-spacing="0px"
       word-spacing="0px"
       style="line-height:125%"
       line-height="125%"
       xml:space="preserve"
       id="text398"><tspan
         x="912.26624"
         y="516.12006"
         fill="#f7f5f3"
         font-family="'IM FELL Great Primer'"
         font-size="45px"
         id="tspan396">8</tspan></text>
    <g
       transform="matrix(0.7,0,0,0.7,86.646,208.21)"
       shape-rendering="geometricPrecision"
       stroke-width="15.822"
       id="g408">
      <g
         transform="matrix(0.059839,-0.059877,-0.059839,-0.059877,1183,511.79)"
         image-rendering="optimizeQuality"
         id="g402">
        <path
           class="fil0"
           d="M 126,0 C 108,22 100,59 98,87 l -3,476 c -32,1 -64,5 -95,12 v 25 l 96,-1 10,102 c -10,7 -17,18 -17,30 0,21 17,37 37,37 20,0 36,-16 36,-37 0,-12 -6,-23 -16,-30 l 10,-102 95,1 v -25 c -31,-7 -62,-11 -94,-12 L 154,87 C 151,59 144,22 126,0 Z"
           fill="#f7f5f3"
           stroke-width="15.822"
           id="path400" />
      </g>
      <g
         transform="matrix(-0.059839,-0.059877,0.059839,-0.059877,1151.2,511.79)"
         image-rendering="optimizeQuality"
         id="g406">
        <path
           class="fil0"
           d="M 126,0 C 108,22 100,59 98,87 l -3,476 c -32,1 -64,5 -95,12 v 25 l 96,-1 10,102 c -10,7 -17,18 -17,30 0,21 17,37 37,37 20,0 36,-16 36,-37 0,-12 -6,-23 -16,-30 l 10,-102 95,1 v -25 c -31,-7 -62,-11 -94,-12 L 154,87 C 151,59 144,22 126,0 Z"
           fill="#f7f5f3"
           stroke-width="15.822"
           id="path404" />
      </g>
    </g>
    <g
       transform="matrix(0.7,0,0,0.7,127.58,208.21)"
       shape-rendering="geometricPrecision"
       stroke-width="15.822"
       id="g418">
      <g
         transform="matrix(0.059839,-0.059877,-0.059839,-0.059877,1183,511.79)"
         image-rendering="optimizeQuality"
         id="g412">
        <path
           class="fil0"
           d="M 126,0 C 108,22 100,59 98,87 l -3,476 c -32,1 -64,5 -95,12 v 25 l 96,-1 10,102 c -10,7 -17,18 -17,30 0,21 17,37 37,37 20,0 36,-16 36,-37 0,-12 -6,-23 -16,-30 l 10,-102 95,1 v -25 c -31,-7 -62,-11 -94,-12 L 154,87 C 151,59 144,22 126,0 Z"
           fill="#f7f5f3"
           stroke-width="15.822"
           id="path410" />
      </g>
      <g
         transform="matrix(-0.059839,-0.059877,0.059839,-0.059877,1151.2,511.79)"
         image-rendering="optimizeQuality"
         id="g416">
        <path
           class="fil0"
           d="M 126,0 C 108,22 100,59 98,87 l -3,476 c -32,1 -64,5 -95,12 v 25 l 96,-1 10,102 c -10,7 -17,18 -17,30 0,21 17,37 37,37 20,0 36,-16 36,-37 0,-12 -6,-23 -16,-30 l 10,-102 95,1 v -25 c -31,-7 -62,-11 -94,-12 L 154,87 C 151,59 144,22 126,0 Z"
           fill="#f7f5f3"
           stroke-width="15.822"
           id="path414" />
      </g>
    </g>
  </g>
</svg>
