<?xml version="1.0" encoding="UTF-8" standalone="no"?>
<svg
   xmlns:dc="http://purl.org/dc/elements/1.1/"
   xmlns:cc="http://creativecommons.org/ns#"
   xmlns:rdf="http://www.w3.org/1999/02/22-rdf-syntax-ns#"
   xmlns:svg="http://www.w3.org/2000/svg"
   xmlns="http://www.w3.org/2000/svg"
   id="svg1193"
   version="1.1"
   viewBox="0 0 28.221207 28.221207"
   height="28.221207mm"
   width="28.221207mm">
  <defs
     id="defs1187" />
  <metadata
     id="metadata1190">
    <rdf:RDF>
      <cc:Work
         rdf:about="">
        <dc:format>image/svg+xml</dc:format>
        <dc:type
           rdf:resource="http://purl.org/dc/dcmitype/StillImage" />
        <dc:title></dc:title>
      </cc:Work>
    </rdf:RDF>
  </metadata>
  <g
     transform="translate(-63.752493,-157.49059)"
     id="layer1">
    <rect
       id="rect226"
       stroke-width="1.41106"
       stroke="#000000"
       fill="#f7f5f3"
       ry="2.6810148"
       height="26.810146"
       width="26.810146"
       y="158.19612"
       x="64.458023" />
    <text
       id="text230"
       xml:space="preserve"
       line-height="125%"
       style="line-height:125%;stroke-width:0.282213"
       word-spacing="0px"
       letter-spacing="0px"
       font-size="19.7549px"
       font-family="'IM FELL Great Primer'"
       fill="#000000"
       y="180.77449"
       x="66.568962"><tspan
         style="stroke-width:0.301016"
         id="tspan228"
         font-size="19.7549px"
         font-family="'IM FELL Great Primer'"
         y="180.77449"
         x="66.568962">1</tspan></text>
    <g
       id="g236"
       stroke-width="1.289"
       transform="matrix(0.2052472,0,0,0.2052472,71.162818,161.23442)">
      <path
         id="path232"
         d="m 16.9,34.8 c 0.4,4.6 1.6,8.8 4.5,12.5 3.2,4.1 4.4,8.6 3.5,13.7 -0.6,3.2 0.7,4.7 3.9,4.9 4,0.2 7.1,1.2 8.2,5.8 0.3,1.4 2.6,2.4 3.9,3.5 l 2.7,-3.7 2.4,0.4 -0.2,4.6 h 2.5 l 0.4,-3.1 3,0.2 v 3 H 54 l 0.2,-4.5 h 2.5 l 2.4,2.8 c 2.2,-0.6 4.2,-1.6 4.7,-4.6 0.5,-2.6 2.8,-3.5 5.1,-4.1 0.9,-0.2 1.9,-0.2 2.9,-0.3 2.8,-0.3 4.1,-1.8 3.6,-4.5 -1,-5.5 0.4,-10.1 3.7,-14.6 4.3,-5.8 5.4,-12.4 3,-19.4 -0.4,-1.3 -1,-2.6 -1.3,-3.9 -1,-5.4 -4.5,-8.9 -8.7,-11.8 -13.5,-9.4 -35.6,-8.1 -47.4,2.6 -2.4,2.2 -4.3,4.6 -5.1,8 -0.8,4.1 -3.1,8 -2.7,12.5 z M 54,47.3 c 0,-0.7 0.3,-1.4 0.6,-2 2.2,-4 5.9,-4.6 9.9,-4.6 2,0.2 4,0.3 5.9,0.8 2.7,0.6 3.3,2.3 2.3,4.9 -0.6,1.5 -0.8,3.2 -1,4.9 -0.1,0.8 -0.3,1.4 -0.6,1.9 -0.4,1.5 -1.3,2.7 -3.3,3 -2.2,0.3 -5.2,-0.6 -7.3,-2 -3.2,-0.9 -6.3,-3.7 -6.5,-6.9 z m -8.4,12.2 c 1,-1.7 1.8,-3.5 2.8,-5.2 0.4,-0.6 1.1,-1.4 1.7,-1.5 0.6,0 1.4,0.7 1.7,1.3 1.1,1.8 2,3.8 3,5.6 1.2,2.1 0.9,4.2 -0.9,5.3 -0.3,0.2 -0.7,0.3 -1,0.4 -0.4,0.2 -0.8,0.3 -1.2,0.4 -0.5,0 -1.1,0 -1.6,-0.1 -0.8,0.2 -1.7,0.1 -2.4,-0.2 -0.4,-0.1 -0.9,-0.2 -1.3,-0.5 -1.9,-1.2 -2.1,-3.3 -0.8,-5.5 z m -16.1,-18 c 1.9,-0.5 4,-0.6 5.6,-0.8 1.9,0.2 3.5,0.2 5.1,0.5 5.3,1.1 7.1,5.7 3.8,9.8 -0.5,0.6 -1,1.3 -1.5,1.9 -0.9,1.1 -1.9,1.7 -2.9,1.9 -2.5,1.3 -5.8,2.2 -8.4,0.9 -1.2,-0.6 -1.7,-1.4 -2,-2.5 -0.5,-0.4 -0.7,-1.1 -0.8,-2.4 -0.1,-1.6 -0.5,-3.2 -1.1,-4.6 -0.9,-2.4 -0.3,-4 2.2,-4.7 z" />
      <path
         id="path234"
         d="m 64.6,82.6 c 2.5,-3.4 0.3,-8.2 2.8,-11.8 1.8,0.6 1.7,1.8 1.7,3.3 -0.1,2.7 0.2,5.4 0.1,8.1 -0.1,1.4 -0.2,3.2 -1.1,4.2 -10.9,12.4 -25.6,12.2 -36.3,0 -0.8,-0.9 -1.1,-2.3 -1.2,-3.5 -0.1,-3.1 0.2,-6.2 0.2,-9.3 0,-1.4 0.2,-2.5 2.4,-2.7 0.3,2.9 0.7,5.7 0.9,8.6 0.1,1.4 0.3,2.6 2,3.3 l 1.2,-5 1.1,-0.1 0.4,5.5 H 40 l 0.7,-4 3.2,-0.1 -0.5,4.6 1.4,-0.1 0.6,-3.9 h 3 l -0.6,4.4 2.6,-0.1 0.3,-4.5 2.6,-0.1 0.1,4.3 2.8,-0.1 0.1,-3.4 2.7,0.1 -0.1,2.9 h 1.7 V 78 l 2.1,-0.2 z" />
    </g>
  </g>
</svg>
