<?xml version="1.0" encoding="UTF-8" standalone="no"?>
<svg
   xmlns:dc="http://purl.org/dc/elements/1.1/"
   xmlns:cc="http://creativecommons.org/ns#"
   xmlns:rdf="http://www.w3.org/1999/02/22-rdf-syntax-ns#"
   xmlns:svg="http://www.w3.org/2000/svg"
   xmlns="http://www.w3.org/2000/svg"
   id="svg1193"
   version="1.1"
   viewBox="0 0 28.221207 28.221207"
   height="28.221207mm"
   width="28.221207mm">
  <defs
     id="defs1187" />
  <metadata
     id="metadata1190">
    <rdf:RDF>
      <cc:Work
         rdf:about="">
        <dc:format>image/svg+xml</dc:format>
        <dc:type
           rdf:resource="http://purl.org/dc/dcmitype/StillImage" />
        <dc:title></dc:title>
      </cc:Work>
    </rdf:RDF>
  </metadata>
  <g
     transform="translate(-63.752493,-157.49059)"
     id="layer1">
    <rect
       id="rect250"
       stroke-width="1.41106"
       stroke="#000000"
       fill="#f7f5f3"
       ry="2.6810148"
       height="26.810146"
       width="26.810146"
       y="158.19612"
       x="64.458023" />
    <text
       id="text254"
       xml:space="preserve"
       line-height="125%"
       style="line-height:125%;stroke-width:0.282213"
       word-spacing="0px"
       letter-spacing="0px"
       font-size="50.7981px"
       font-family="'IM FELL Great Primer'"
       fill="#000000"
       y="168.9231"
       x="74.438072"><tspan
         style="stroke-width:0.301016"
         id="tspan252"
         font-size="12.6995px"
         font-family="'IM FELL Great Primer'"
         y="168.9231"
         x="74.438072">6</tspan></text>
    <g
       id="g264"
       stroke-width="11.075"
       shape-rendering="geometricPrecision"
       transform="matrix(0.28221207,0,0,0.28221207,-251.50942,40.761748)">
      <g
         id="g258"
         image-rendering="optimizeQuality"
         transform="matrix(0.059839,-0.059877,-0.059839,-0.059877,1183,511.79)">
        <path
           id="path256"
           stroke-width="11.075"
           d="M 126,0 C 108,22 100,59 98,87 l -3,476 c -32,1 -64,5 -95,12 v 25 l 96,-1 10,102 c -10,7 -17,18 -17,30 0,21 17,37 37,37 20,0 36,-16 36,-37 0,-12 -6,-23 -16,-30 l 10,-102 95,1 v -25 c -31,-7 -62,-11 -94,-12 L 154,87 C 151,59 144,22 126,0 Z"
           class="fil0" />
      </g>
      <g
         id="g262"
         image-rendering="optimizeQuality"
         transform="matrix(-0.059839,-0.059877,0.059839,-0.059877,1151.2,511.79)">
        <path
           id="path260"
           stroke-width="11.075"
           d="M 126,0 C 108,22 100,59 98,87 l -3,476 c -32,1 -64,5 -95,12 v 25 l 96,-1 10,102 c -10,7 -17,18 -17,30 0,21 17,37 37,37 20,0 36,-16 36,-37 0,-12 -6,-23 -16,-30 l 10,-102 95,1 v -25 c -31,-7 -62,-11 -94,-12 L 154,87 C 151,59 144,22 126,0 Z"
           class="fil0" />
      </g>
    </g>
  </g>
</svg>
