<?xml version="1.0" encoding="UTF-8" standalone="no"?>
<svg
   xmlns:dc="http://purl.org/dc/elements/1.1/"
   xmlns:cc="http://creativecommons.org/ns#"
   xmlns:rdf="http://www.w3.org/1999/02/22-rdf-syntax-ns#"
   xmlns:svg="http://www.w3.org/2000/svg"
   xmlns="http://www.w3.org/2000/svg"
   xmlns:sodipodi="http://sodipodi.sourceforge.net/DTD/sodipodi-0.dtd"
   xmlns:inkscape="http://www.inkscape.org/namespaces/inkscape"
   inkscape:version="1.0 (4035a4fb49, 2020-05-01)"
   sodipodi:docname="attribute-damaged.svg"
   version="1.1"
   id="svg2"
   width="199.93613"
   height="233.65369"
   viewBox="0 0 199.93613 233.65369">
  <sodipodi:namedview
     fit-margin-bottom="0"
     fit-margin-right="0"
     fit-margin-left="0"
     fit-margin-top="0"
     inkscape:current-layer="svg2"
     inkscape:window-maximized="1"
     inkscape:window-y="-8"
     inkscape:window-x="-8"
     inkscape:cy="116.8242"
     inkscape:cx="99.967922"
     inkscape:zoom="3.0926309"
     showgrid="false"
     id="namedview6"
     inkscape:window-height="1137"
     inkscape:window-width="1920"
     inkscape:pageshadow="2"
     inkscape:pageopacity="0"
     guidetolerance="10"
     gridtolerance="10"
     objecttolerance="10"
     borderopacity="1"
     bordercolor="#666666"
     pagecolor="#ffffff"
     inkscape:document-rotation="0" />
  <metadata
     id="metadata8">
    <rdf:RDF>
      <cc:Work
         rdf:about="">
        <dc:format>image/svg+xml</dc:format>
        <dc:type
           rdf:resource="http://purl.org/dc/dcmitype/StillImage" />
        <dc:title />
      </cc:Work>
    </rdf:RDF>
  </metadata>
  <defs
     id="defs6" />
  <path
     style="fill:#cf000f;stroke:#cf000f;stroke-width:1;stroke-miterlimit:4;stroke-dasharray:none;fill-opacity:1;stroke-opacity:1"
     d="m 89.877664,231.94114 c -0.23103,-0.6669 -0.54216,-3.17687 -0.69142,-5.57772 -0.36261,-5.83261 -2.12093,-5.15565 -2.4865,0.95731 -0.31798,5.31703 -0.35312,5.33645 -6.90166,3.81515 -4.94575,-1.14895 -5.76145,-2.07314 -5.78186,-6.55086 -0.0191,-4.18293 -2.30175,-3.64568 -2.72161,0.64056 -0.21213,2.16555 -0.79933,3.07792 -1.98095,3.07792 -2.91137,0 -4.69064,-2.2808 -5.2316,-6.70628 -1.06391,-8.7036 -6.65026,-12.80591 -18.35763,-13.48086 -6.85501,-0.39521 -8.43949,-0.85901 -13.03382,-3.8152 -7.02571,-4.52064 -16.15813,-13.42916 -18.65161,-18.19431 -2.48967,-4.75789 -2.91062,-18.50833 -0.71655,-23.40637 1.27424,-2.84461 1.07716,-3.91254 -3.13274,-16.97566 C 1.4499643,118.60576 0.48617433,113.93868 0.50014433,98.803451 0.51294433,84.899588 1.4570843,79.253788 5.7320042,67.517058 21.891794,23.150498 70.218124,-6.0549625 114.52643,1.7683974 c 32.59744,5.7556206 60.35744,27.8671906 75.53178,60.1630306 6.95966,14.81238 9.31791,25.42976 9.37479,42.207232 0.0514,15.16877 -0.44496,18.09093 -6.68783,39.37124 l -3.43974,11.72516 2.43277,3.61427 c 4.66585,6.93186 4.15001,18.41136 -1.21024,26.93287 -3.1802,5.05577 -10.96353,11.97561 -18.86673,16.77367 -5.22644,3.17299 -6.25116,3.43676 -13.3515,3.43676 -13.31715,0 -18.71362,4.22841 -19.80799,15.5206 -0.4463,4.60501 -0.81336,5.37764 -2.68191,5.64519 -1.85229,0.26523 -2.16484,-0.1316 -2.16484,-2.74844 0,-4.0057 -2.29585,-3.37397 -2.70154,0.74336 -0.36807,3.73548 -1.44025,4.6237 -6.99551,5.79519 l -4.40521,0.92896 -0.22253,-4.91676 c -0.24479,-5.40892 -0.45554,-5.94465 -1.9678,-5.00236 -0.56439,0.35167 -1.02617,2.74166 -1.02617,5.31109 0,4.45626 -0.13865,4.69964 -3.00673,5.27795 -1.6537,0.33346 -4.2299,0.60628 -5.72491,0.60628 -2.62933,0 -2.72759,-0.1798 -3.00672,-5.50109 -0.41426,-7.89747 -2.69394,-8.23595 -2.69394,-0.39997 v 5.90106 h -5.803105 c -3.777041,0 -5.949771,-0.42335 -6.223161,-1.21255 z m 6.607391,-41.93556 4.489235,-2.40652 5.21301,2.57766 c 4.45241,2.20155 5.441,2.38689 6.77553,1.27025 2.00128,-1.67453 1.48116,-5.29641 -3.05932,-21.30347 -7.39694,-26.07725 -9.32802,-26.66295 -16.130516,-4.89246 -3.88573,12.43575 -5.99217,23.0763 -5.05548,25.53729 0.84168,2.21136 2.4925,2.045 7.767541,-0.78275 z M 58.398494,166.79397 c 2.49603,-1.28547 8.65585,-5.78659 13.68849,-10.0025 7.12814,-5.97133 9.81334,-8.93832 12.15076,-13.4259 5.57649,-10.70615 6.6629,-22.81702 2.5464,-28.38625 -5.6352,-7.62389 -35.41676,-10.22426 -47.27044,-4.12741 -4.47781,2.30313 -6.29944,4.93605 -8.18081,11.82429 -2.21363,8.10474 -2.67235,14.51308 -1.58975,22.20895 2.81832,20.03458 14.68204,29.10515 28.65535,21.90882 z m 102.966176,-0.97131 c 9.18287,-4.83667 13.90563,-18.63982 11.76687,-34.39089 -2.88262,-21.22927 -9.26621,-26.41007 -30.81718,-25.0106 -14.71122,0.95531 -24.73926,4.44258 -28.08122,9.76532 -4.07666,6.49289 0.38508,24.1966 8.17176,32.4247 3.67653,3.88493 19.37702,15.11167 23.90713,17.09494 4.13772,1.81149 11.72312,1.87021 15.05264,0.11653 z"
     id="path831" />
</svg>
