<?xml version="1.0" encoding="UTF-8" standalone="no"?>
<svg
   xmlns:dc="http://purl.org/dc/elements/1.1/"
   xmlns:cc="http://creativecommons.org/ns#"
   xmlns:rdf="http://www.w3.org/1999/02/22-rdf-syntax-ns#"
   xmlns:svg="http://www.w3.org/2000/svg"
   xmlns="http://www.w3.org/2000/svg"
   height="458.42001"
   width="450.60999"
   id="svg8"
   version="1.1"
   viewBox="0 0 450.60999 458.42001">
  <metadata
     id="metadata14">
    <rdf:RDF>
      <cc:Work
         rdf:about="">
        <dc:format>image/svg+xml</dc:format>
        <dc:type
           rdf:resource="http://purl.org/dc/dcmitype/StillImage" />
        <dc:title></dc:title>
      </cc:Work>
    </rdf:RDF>
  </metadata>
  <defs
     id="defs12" />
  <g
     transform="translate(-43.39,-35.58)"
     id="g6"
     style="fill:#999999"
     class="">
    <path
       style="fill:#999999"
       id="path4"
       fill-opacity="1"
       fill="#fff"
       d="m 246.8,35.58 25.5,52.5 24.8,-22.9 z m 109.1,13.41 -10.3,9.51 52.9,57.3 10.3,-9.5 z m -30.3,14.37 -57.3,52.94 66.5,72 57.3,-53 z M 181.8,93.33 162.3,142.5 196,187 Z M 75.81,127 43.39,140.8 137.8,192.9 Z m 186.09,8.9 -16.2,15 -32,44.1 62.7,-18.2 -33.6,70.7 32.4,-17.8 39.6,-36.6 z m 232.1,2.4 c -3.1,0.8 -6.1,1.6 -9.2,2.3 -25.7,5.9 -51.9,8.5 -74.5,2.3 l -69.4,64.2 c 4.5,23 -0.2,48.9 -8.1,74.1 -8.7,27.5 -21.6,54.1 -32.9,75.4 60.6,17.3 133,-11.2 187.1,-61.1 2.4,-2.2 4.7,-4.5 7,-6.7 z M 76.71,232.6 57.93,270.2 130.5,248.6 Z m 117.19,48 -24,51.8 -21,-34.4 -47.2,196 H 182 l 37.2,-154.6 -25.7,29.5 z" />
  </g>
</svg>
