<?xml version="1.0" encoding="UTF-8" standalone="no"?>
<svg
   xmlns:dc="http://purl.org/dc/elements/1.1/"
   xmlns:cc="http://creativecommons.org/ns#"
   xmlns:rdf="http://www.w3.org/1999/02/22-rdf-syntax-ns#"
   xmlns:svg="http://www.w3.org/2000/svg"
   xmlns="http://www.w3.org/2000/svg"
   xmlns:sodipodi="http://sodipodi.sourceforge.net/DTD/sodipodi-0.dtd"
   xmlns:inkscape="http://www.inkscape.org/namespaces/inkscape"
   inkscape:version="1.0 (4035a4fb49, 2020-05-01)"
   height="470.129"
   width="466.59085"
   sodipodi:docname="feather.svg"
   id="svg8"
   version="1.1"
   viewBox="0 0 466.59085 470.129">
  <metadata
     id="metadata14">
    <rdf:RDF>
      <cc:Work
         rdf:about="">
        <dc:format>image/svg+xml</dc:format>
        <dc:type
           rdf:resource="http://purl.org/dc/dcmitype/StillImage" />
        <dc:title></dc:title>
      </cc:Work>
    </rdf:RDF>
  </metadata>
  <defs
     id="defs12" />
  <sodipodi:namedview
     inkscape:current-layer="svg8"
     inkscape:window-maximized="1"
     inkscape:window-y="-8"
     inkscape:window-x="-8"
     inkscape:cy="236.001"
     inkscape:cx="226.343"
     inkscape:zoom="1.4355469"
     fit-margin-bottom="0"
     fit-margin-right="0"
     fit-margin-left="0"
     fit-margin-top="0"
     showgrid="false"
     id="namedview10"
     inkscape:window-height="1137"
     inkscape:window-width="1920"
     inkscape:pageshadow="2"
     inkscape:pageopacity="0"
     guidetolerance="10"
     gridtolerance="10"
     objecttolerance="10"
     borderopacity="1"
     bordercolor="#666666"
     pagecolor="#ffffff" />
  <g
     transform="translate(-29.657,-19.999)"
     id="g6"
     class="">
    <path
       id="path4"
       fill-opacity="1"
       fill="#ffffff"
       d="M 470.72,20 368.186,49.813 409.749,21.719 c -26.254,5.922 -59.36,17.502 -100.97,36.186 l -67.874,70.78 24.065,-49.435 c -23.247,12.958 -47.95,29.99 -71.814,49.844 L 177.376,193.406 174,145.844 c -23.55,21.548 -45.624,45.6 -63.875,70.812 -19.25,26.59 -34.28,54.506 -41.813,82.438 L 40.19,280.28 c 6.138,19.613 11.892,39.232 22.906,58.845 0.032,1.468 0.1,2.944 0.187,4.406 L 29.657,333.19 c 11.227,18.284 23.577,35.893 43,49.125 0.45,1.003 0.953,1.973 1.438,2.968 -11.838,33.33 -20.568,67.004 -26.53,101.69 l 18.405,3.155 c 4.952,-28.808 11.836,-56.842 20.905,-84.563 0.04,0.053 0.084,0.105 0.125,0.157 44.277,-156.11 142.813,-266.846 287.03,-324 l 6.876,17.374 c -129.048,51.143 -219.303,145.15 -265.78,279.062 18.106,0.102 35.796,-2.088 52.218,-6.22 l 4.875,-60.967 13.093,55.5 c 10.84,-3.922 20.88,-8.762 29.812,-14.376 l -20.688,-43.47 32.782,34.813 c 7.944,-6.468 14.613,-13.678 19.624,-21.53 30.308,-47.507 62.195,-94.728 124.75,-134.188 l -45.72,-16.25 70.157,2.124 c 2.044,-1.085 4.087,-2.18 6.19,-3.25 9.087,-4.63 17.916,-10.182 26.31,-16.375 L 378.814,150 453.532,132.375 c 5.788,-5.81 11.174,-11.836 16.033,-17.97 17.384,-21.94 29.034,-44.784 26.28,-65.56 -1.376,-10.39 -7.556,-20.154 -17.624,-25.626 -2.333,-1.27 -4.832,-2.337 -7.5,-3.22 z M 106.25,406 c -0.89,3.06 -1.778,6.122 -2.625,9.22 z" />
  </g>
</svg>
