<?xml version="1.0" encoding="UTF-8" standalone="no"?>
<svg
   xmlns:dc="http://purl.org/dc/elements/1.1/"
   xmlns:cc="http://creativecommons.org/ns#"
   xmlns:rdf="http://www.w3.org/1999/02/22-rdf-syntax-ns#"
   xmlns:svg="http://www.w3.org/2000/svg"
   xmlns="http://www.w3.org/2000/svg"
   xmlns:sodipodi="http://sodipodi.sourceforge.net/DTD/sodipodi-0.dtd"
   xmlns:inkscape="http://www.inkscape.org/namespaces/inkscape"
   inkscape:version="1.0 (4035a4fb49, 2020-05-01)"
   sodipodi:docname="healing-time.svg"
   id="svg8"
   version="1.1"
   viewBox="0 0 512 512"
   style="height: 512px; width: 512px;">
  <metadata
     id="metadata14">
    <rdf:RDF>
      <cc:Work
         rdf:about="">
        <dc:format>image/svg+xml</dc:format>
        <dc:type
           rdf:resource="http://purl.org/dc/dcmitype/StillImage" />
        <dc:title></dc:title>
      </cc:Work>
    </rdf:RDF>
  </metadata>
  <defs
     id="defs12" />
  <sodipodi:namedview
     inkscape:current-layer="svg8"
     inkscape:window-maximized="1"
     inkscape:window-y="-8"
     inkscape:window-x="-8"
     inkscape:cy="256"
     inkscape:cx="256"
     inkscape:zoom="1.4355469"
     showgrid="false"
     id="namedview10"
     inkscape:window-height="1137"
     inkscape:window-width="1920"
     inkscape:pageshadow="2"
     inkscape:pageopacity="0"
     guidetolerance="10"
     gridtolerance="10"
     objecttolerance="10"
     borderopacity="1"
     bordercolor="#666666"
     pagecolor="#ffffff" />
  <path
     id="path2"
     fill-opacity="1"
     fill="#fff"
     d="M0 0h512v512H0z" />
  <g
     id="g6"
     transform="translate(0,0)"
     style="touch-action:none;fill:#b3b3b3"
     class="">
    <path
       style="fill:#b3b3b3"
       id="path4"
       fill-opacity="1"
       fill="#000"
       d="M196 16a30 30 0 0 0-30 30v120H46a30 30 0 0 0-30 30v120a30 30 0 0 0 30 30h120v120a30 30 0 0 0 30 30h120a30 30 0 0 0 30-30V346h120a30 30 0 0 0 30-30V196a30 30 0 0 0-30-30H346V46a30 30 0 0 0-30-30H196z" />
  </g>
</svg>
