<?xml version="1.0" encoding="UTF-8" standalone="no"?>
<svg
   xmlns:dc="http://purl.org/dc/elements/1.1/"
   xmlns:cc="http://creativecommons.org/ns#"
   xmlns:rdf="http://www.w3.org/1999/02/22-rdf-syntax-ns#"
   xmlns:svg="http://www.w3.org/2000/svg"
   xmlns="http://www.w3.org/2000/svg"
   xmlns:sodipodi="http://sodipodi.sourceforge.net/DTD/sodipodi-0.dtd"
   xmlns:inkscape="http://www.inkscape.org/namespaces/inkscape"
   inkscape:version="1.0 (4035a4fb49, 2020-05-01)"
   sodipodi:docname="hourglass.svg"
   id="svg8"
   version="1.1"
   viewBox="0 0 512 512"
   style="height: 512px; width: 512px;">
  <metadata
     id="metadata14">
    <rdf:RDF>
      <cc:Work
         rdf:about="">
        <dc:format>image/svg+xml</dc:format>
        <dc:type
           rdf:resource="http://purl.org/dc/dcmitype/StillImage" />
      </cc:Work>
    </rdf:RDF>
  </metadata>
  <defs
     id="defs12" />
  <sodipodi:namedview
     inkscape:current-layer="svg8"
     inkscape:window-maximized="1"
     inkscape:window-y="-8"
     inkscape:window-x="-8"
     inkscape:cy="256"
     inkscape:cx="256"
     inkscape:zoom="1.4355469"
     showgrid="false"
     id="namedview10"
     inkscape:window-height="1137"
     inkscape:window-width="1920"
     inkscape:pageshadow="2"
     inkscape:pageopacity="0"
     guidetolerance="10"
     gridtolerance="10"
     objecttolerance="10"
     borderopacity="1"
     bordercolor="#666666"
     pagecolor="#ffffff" />
  <path
     style="fill:#ffffff"
     id="path2"
     fill-opacity="1"
     fill="#000"
     d="M0 0h512v512H0z" />
  <g
     id="g6"
     transform="translate(0,0)"
     style="touch-action:none;fill:#000000"
     class="">
    <path
       style="fill:#000000"
       id="path4"
       fill-opacity="1"
       fill="#fff"
       d="M92.656 19.188v41.5h331.72v-41.5H92.655zM119.5 79.374V433.53h22.28V79.376H119.5zm46.594 0c3.212 43.324 13.312 82.022 27.78 110.906 17.685 35.304 40.845 54.75 64.064 54.75 23.218 0 46.346-19.446 64.03-54.75 14.47-28.883 24.57-67.58 27.782-110.905H166.094zm209.156 0V433.53h22.28V79.376h-22.28zm-117.313 185.22c-23.218 0-46.378 19.415-64.062 54.717-14.835 29.614-25.098 69.562-28.03 114.22H350c-2.933-44.658-13.197-84.606-28.03-114.22-17.686-35.302-40.814-54.718-64.033-54.718zM92.657 452.218v41.467h331.718V452.22H92.655z" />
  </g>
</svg>
