<?xml version="1.0" encoding="UTF-8" standalone="no"?>
<svg
   xmlns:dc="http://purl.org/dc/elements/1.1/"
   xmlns:cc="http://creativecommons.org/ns#"
   xmlns:rdf="http://www.w3.org/1999/02/22-rdf-syntax-ns#"
   xmlns:svg="http://www.w3.org/2000/svg"
   xmlns="http://www.w3.org/2000/svg"
   xmlns:sodipodi="http://sodipodi.sourceforge.net/DTD/sodipodi-0.dtd"
   xmlns:inkscape="http://www.inkscape.org/namespaces/inkscape"
   inkscape:version="1.0 (4035a4fb49, 2020-05-01)"
   sodipodi:docname="mount_inactive.svg"
   id="svg8"
   version="1.1"
   viewBox="0 0 512 512"
   style="height: 512px; width: 512px;">
  <metadata
     id="metadata14">
    <rdf:RDF>
      <cc:Work
         rdf:about="">
        <dc:format>image/svg+xml</dc:format>
        <dc:type
           rdf:resource="http://purl.org/dc/dcmitype/StillImage" />
        <dc:title></dc:title>
      </cc:Work>
    </rdf:RDF>
  </metadata>
  <defs
     id="defs12" />
  <sodipodi:namedview
     inkscape:current-layer="svg8"
     inkscape:window-maximized="1"
     inkscape:window-y="-8"
     inkscape:window-x="-8"
     inkscape:cy="255.3661"
     inkscape:cx="256"
     inkscape:zoom="1.4355469"
     showgrid="false"
     id="namedview10"
     inkscape:window-height="1137"
     inkscape:window-width="1920"
     inkscape:pageshadow="2"
     inkscape:pageopacity="0"
     guidetolerance="10"
     gridtolerance="10"
     objecttolerance="10"
     borderopacity="1"
     bordercolor="#666666"
     pagecolor="#ffffff"
     inkscape:document-rotation="0" />
  <path
     id="path2"
     fill-opacity="1"
     fill="#000"
     d="M0 0h512v512H0z"
     style="opacity:1;fill:#cccccc" />
  <g
     id="g6"
     transform="matrix(1.0571459,0,0,1.0571459,-14.62935,-14.629349)"
     class="">
    <path
       style="stroke-width:1.14614"
       sodipodi:nodetypes="cccccccccscccccccccccccscccccccccccccccccsccccccccccccccssssscccccc"
       id="path4"
       fill-opacity="1"
       fill="#ffffff"
       d="m 338.50964,26.539857 c -14.41841,0.499716 -30.47579,5.712349 -43.60709,13.490037 -8.75649,5.18398 -16.17773,11.42699 -20.9789,17.354813 -4.80231,5.928968 -6.63613,11.268822 -6.47338,14.519268 l 0.32436,6.567367 -5.81665,3.067064 C 149.81761,140.65617 89.338228,206.63586 17.19461,275.25167 v 210.20847 h 190.31267 c 7.04302,-17.67802 14.58346,-38.85177 17.29063,-54.48164 1.98053,-11.43501 -3.1897,-24.99382 -9.43271,-40.39447 -6.23957,-15.3995 -13.58173,-32.90102 -8.74503,-52.061 4.00002,-15.84764 16.47573,-29.51532 27.61733,-40.86667 5.10031,-5.19659 9.98286,-9.69976 13.83961,-13.11754 -7.51637,-9.83042 -16.12042,-23.28378 -18.92273,-39.99332 l 20.34394,-3.4132 c 3.07165,18.31069 17.42473,32.70274 26.13193,44.97443 l -0.3702,0.26362 c 12.08029,16.77257 21.65283,32.54457 35.20934,43.03287 15.3101,11.84762 36.08499,18.78519 76.24794,13.16912 l 7.63098,-1.0682 3.18855,7.01894 c 7.97712,17.56112 16.47229,27.38123 24.08608,32.57667 7.61379,5.19773 14.47572,6.25791 21.4236,5.48999 13.89692,-1.53582 27.83968,-12.57771 31.81677,-16.3485 4.73355,-4.49286 11.06825,-10.8608 15.26655,-18.48032 3.83613,-6.96393 5.81436,-14.54104 3.98856,-23.77547 -48.91714,-43.05121 -79.76199,-124.64244 -103.44577,-174.90057 -10.59604,-22.48721 -41.01568,-39.53257 -60.70746,-54.957277 -2.78168,-1.6046 -3.06592,-2.95933 -3.71349,-5.9072 -4.83097,-21.968012 3.65389,-46.140049 12.57771,-65.671377 -0.11003,0.0023 -0.21318,-0.01146 -0.32091,-0.0069 z M 64.589683,75.773335 c 20.473452,5.644726 43.295337,11.077418 65.795167,16.980028 16.96627,4.45045 33.53598,9.094597 48.6031,14.631587 20.5319,-13.957657 42.87356,-27.648272 67.70463,-40.997334 -59.16362,-15.243627 -125.9926,-3.608041 -182.102897,9.386865 z m 32.937696,29.943985 c -26.363452,4.73698 -52.69252,11.75249 -76.959687,19.09694 20.78291,4.37022 43.89477,8.38285 66.713219,12.88487 13.494619,2.66248 26.747409,5.4625 39.262079,8.75993 10.26378,-8.34298 20.73631,-16.42582 31.40761,-24.2408 -10.36567,-3.36048 -21.44423,-6.53069 -32.80246,-9.51065 -9.11408,-2.39084 -18.38748,-4.69687 -27.621907,-6.99144 z m -46.590484,46.14807 c -11.318107,2.40231 -22.610999,5.2516 -33.742285,8.35534 v 20.67632 c 7.712039,1.16697 15.418746,2.3689 23.119883,3.60575 12.040174,1.94843 23.893526,4.00919 35.225387,6.44702 10.12727,-9.38113 20.500959,-18.70725 31.25287,-27.96231 -7.610348,-1.78797 -15.495774,-3.46592 -23.504982,-5.04644 -10.682,-2.1066 -21.558844,-4.08713 -32.35202,-6.07453 z M 344.9899,176.00305 c 10.12842,0 18.3382,8.20978 18.3382,18.33819 0,10.12842 -8.20978,18.3382 -18.3382,18.3382 -10.12841,0 -18.3382,-8.20978 -18.3382,-18.3382 0,-10.12841 8.20979,-18.33819 18.3382,-18.33819 z M 17.19461,201.80489 v 30.46433 c 4.767932,0.2235 9.490018,0.48711 14.145628,0.81376 8.527262,-8.25219 17.052232,-16.48604 25.658577,-24.68551 -6.642635,-1.27336 -13.303552,-2.44942 -19.980613,-3.52781 -6.601854,-1.06008 -13.20983,-2.08169 -19.823592,-3.06477 z" />
  </g>
</svg>
