<?xml version="1.0" encoding="UTF-8" standalone="no"?>
<svg
   xmlns:dc="http://purl.org/dc/elements/1.1/"
   xmlns:cc="http://creativecommons.org/ns#"
   xmlns:rdf="http://www.w3.org/1999/02/22-rdf-syntax-ns#"
   xmlns:svg="http://www.w3.org/2000/svg"
   xmlns="http://www.w3.org/2000/svg"
   xmlns:sodipodi="http://sodipodi.sourceforge.net/DTD/sodipodi-0.dtd"
   xmlns:inkscape="http://www.inkscape.org/namespaces/inkscape"
   inkscape:version="1.0 (4035a4fb49, 2020-05-01)"
   sodipodi:docname="person.svg"
   id="svg8"
   version="1.1"
   viewBox="0 0 512 512"
   style="height: 512px; width: 512px;">
  <metadata
     id="metadata14">
    <rdf:RDF>
      <cc:Work
         rdf:about="">
        <dc:format>image/svg+xml</dc:format>
        <dc:type
           rdf:resource="http://purl.org/dc/dcmitype/StillImage" />
      </cc:Work>
    </rdf:RDF>
  </metadata>
  <defs
     id="defs12" />
  <sodipodi:namedview
     inkscape:current-layer="svg8"
     inkscape:window-maximized="1"
     inkscape:window-y="-8"
     inkscape:window-x="-8"
     inkscape:cy="256"
     inkscape:cx="256"
     inkscape:zoom="1.4355469"
     showgrid="false"
     id="namedview10"
     inkscape:window-height="1137"
     inkscape:window-width="1920"
     inkscape:pageshadow="2"
     inkscape:pageopacity="0"
     guidetolerance="10"
     gridtolerance="10"
     objecttolerance="10"
     borderopacity="1"
     bordercolor="#666666"
     pagecolor="#ffffff" />
  <path
     style="fill:#ffffff"
     id="path2"
     fill-opacity="1"
     fill="#000"
     d="M0 0h512v512H0z" />
  <g
     id="g6"
     transform="matrix(1.0734755,0,0,1,-18.809191,4.0181434e-4)"
     style="fill:#000000"
     class="">
    <path
       style="fill:#000000"
       id="path4"
       fill-opacity="1"
       fill="#fff"
       d="m 250.882,22.802 c -23.366,3.035 -44.553,30.444 -44.553,65.935 0,19.558 6.771,36.856 16.695,48.815 l 11.84,14.263 -18.217,3.424 c -12.9,2.425 -22.358,9.24 -30.443,20.336 -8.085,11.097 -14.266,26.558 -18.598,44.375 -7.843,32.28 -9.568,71.693 -9.842,106.436 h 42.868 l 11.771,157.836 c 29.894,6.748 61.811,6.51 90.602,0.025 l 10.414,-157.86 h 40.816 c -0.027,-35.169 -0.477,-75.126 -7.584,-107.65 -3.918,-17.934 -9.858,-33.372 -18.04,-44.343 -8.185,-10.97 -18.08,-17.745 -32.563,-19.989 l -18.592,-2.88 11.736,-14.704 c 9.495,-11.897 15.932,-28.997 15.932,-48.082 0,-37.838 -23.655,-65.844 -49.399,-65.844 z" />
  </g>
</svg>
