<?xml version="1.0" encoding="UTF-8" standalone="no"?>
<svg
   xmlns:dc="http://purl.org/dc/elements/1.1/"
   xmlns:cc="http://creativecommons.org/ns#"
   xmlns:rdf="http://www.w3.org/1999/02/22-rdf-syntax-ns#"
   xmlns:svg="http://www.w3.org/2000/svg"
   xmlns="http://www.w3.org/2000/svg"
   xmlns:sodipodi="http://sodipodi.sourceforge.net/DTD/sodipodi-0.dtd"
   xmlns:inkscape="http://www.inkscape.org/namespaces/inkscape"
   inkscape:version="1.0 (4035a4fb49, 2020-05-01)"
   sodipodi:docname="sleepy-marked.svg"
   style="height: 512px; width: 512px;"
   viewBox="0 0 512 512"
   version="1.1"
   id="svg8">
  <sodipodi:namedview
     inkscape:current-layer="svg8"
     inkscape:window-maximized="1"
     inkscape:window-y="-8"
     inkscape:window-x="-8"
     inkscape:cy="256"
     inkscape:cx="256"
     inkscape:zoom="1.4355469"
     showgrid="false"
     id="namedview8"
     inkscape:window-height="1137"
     inkscape:window-width="1920"
     inkscape:pageshadow="2"
     inkscape:pageopacity="0"
     guidetolerance="10"
     gridtolerance="10"
     objecttolerance="10"
     borderopacity="1"
     bordercolor="#666666"
     pagecolor="#ffffff" />
  <metadata
     id="metadata14">
    <rdf:RDF>
      <cc:Work
         rdf:about="">
        <dc:format>image/svg+xml</dc:format>
        <dc:type
           rdf:resource="http://purl.org/dc/dcmitype/StillImage" />
        <dc:title />
      </cc:Work>
    </rdf:RDF>
  </metadata>
  <defs
     id="defs12" />
  <path
     d="M0 0h512v512H0z"
     fill="#000"
     fill-opacity="1"
     id="path2" />
  <g
     class=""
     style="touch-action:none;fill:#ff2a2a"
     transform="translate(0,0)"
     id="g6">
    <path
       d="M249.094 18.25c-42.675 0-81.852 25.486-110.938 68.438C109.07 129.637 90.72 189.74 90.72 256.28c0 66.543 18.35 126.643 47.436 169.595s68.263 68.47 110.938 68.47 81.883-25.518 110.97-68.47c29.084-42.952 47.436-103.052 47.436-169.594 0-66.54-18.352-126.64-47.438-169.592C330.978 43.736 291.77 18.25 249.094 18.25zm-128.97 241.313c18.356 18.096 37.528 26.765 55.72 27.562 18.19.797 35.927-6.096 52.125-21.5l12.874 13.53c-19.214 18.274-42.25 27.658-65.813 26.626-23.56-1.03-47.1-12.3-68-32.905l13.095-13.313zm264.782 0l13.125 13.312C377.135 293.48 353.564 304.75 330 305.78c-23.563 1.033-46.598-8.35-65.813-26.624l12.875-13.53c16.2 15.403 33.934 22.296 52.125 21.5 18.192-.798 37.365-9.467 55.72-27.563zM251.562 371.656c36.423-.156 72.996 19.144 77.438 58.406-51.33 13.296-102.67 12.767-154 0 3.858-38.638 40.14-58.25 76.563-58.406z"
       fill="#fff"
       fill-opacity="1"
       id="path4"
       style="fill:#ff2a2a" />
  </g>
</svg>
