<?xml version="1.0" encoding="UTF-8" standalone="no"?>
<svg
   xmlns:dc="http://purl.org/dc/elements/1.1/"
   xmlns:cc="http://creativecommons.org/ns#"
   xmlns:rdf="http://www.w3.org/1999/02/22-rdf-syntax-ns#"
   xmlns:svg="http://www.w3.org/2000/svg"
   xmlns="http://www.w3.org/2000/svg"
   xmlns:sodipodi="http://sodipodi.sourceforge.net/DTD/sodipodi-0.dtd"
   xmlns:inkscape="http://www.inkscape.org/namespaces/inkscape"
   inkscape:version="1.0 (4035a4fb49, 2020-05-01)"
   height="468.96799"
   width="286.75"
   sodipodi:docname="time-limit.svg"
   id="svg8"
   version="1.1"
   viewBox="0 0 286.75 468.96799">
  <metadata
     id="metadata14">
    <rdf:RDF>
      <cc:Work
         rdf:about="">
        <dc:format>image/svg+xml</dc:format>
        <dc:type
           rdf:resource="http://purl.org/dc/dcmitype/StillImage" />
        <dc:title></dc:title>
      </cc:Work>
    </rdf:RDF>
  </metadata>
  <defs
     id="defs12" />
  <sodipodi:namedview
     fit-margin-bottom="0"
     fit-margin-right="0"
     fit-margin-left="0"
     fit-margin-top="0"
     inkscape:current-layer="svg8"
     inkscape:window-maximized="1"
     inkscape:window-y="-8"
     inkscape:window-x="-8"
     inkscape:cy="109.34537"
     inkscape:cx="313.4547"
     inkscape:zoom="1.0150849"
     showgrid="false"
     id="namedview10"
     inkscape:window-height="1137"
     inkscape:window-width="1920"
     inkscape:pageshadow="2"
     inkscape:pageopacity="0"
     guidetolerance="10"
     gridtolerance="10"
     objecttolerance="10"
     borderopacity="1"
     bordercolor="#666666"
     pagecolor="#ffffff" />
  <path
     style="fill:#ffffff"
     id="path2"
     fill-opacity="1"
     fill="#fff"
     d="m -115.06,-21.97 h 512 v 512 h -512 z" />
  <g
     transform="translate(-115.06,-21.97)"
     id="g6"
     style="fill:#ff2a2a"
     class="">
    <path
       style="fill:#ff2a2a"
       id="path4"
       fill-opacity="1"
       fill="#000"
       d="m 115.063,21.97 v 9.343 c 0,101.953 38.158,189.648 96.343,222.093 v 6.094 c -58.186,32.445 -96.344,120.14 -96.344,222.094 v 9.344 H 401.81 v -9.344 c 0,-102.552 -38.804,-190.274 -97.53,-222.188 V 253.5 C 363.002,221.583 401.81,133.86 401.81,31.312 V 21.97 H 115.06 Z M 134,40.655 h 248.875 c -2.477,96.445 -42.742,175.523 -91.938,198.906 l -5.343,2.532 v 28.751 l 5.344,2.53 c 49.193,23.383 89.456,102.438 91.937,198.876 H 134 c 2.456,-95.898 42.125,-175.078 90.875,-198.938 l 5.25,-2.562 v -28.594 l -5.25,-2.562 C 176.127,215.734 136.455,136.554 134,40.656 Z m 213.656,86.125 c -57.607,27.81 -124.526,27.84 -177.562,4.095 14.654,50.905 43.816,87.137 78.126,93.125 -1.54,2.047 -2.47,4.585 -2.47,7.344 0,6.76 5.488,12.25 12.25,12.25 6.762,0 12.25,-5.49 12.25,-12.25 0,-2.72 -0.907,-5.218 -2.406,-7.25 35.426,-5.88 65.488,-44.07 79.812,-97.313 z M 258,258.626 c -6.762,0 -12.25,5.488 -12.25,12.25 0,6.762 5.488,12.25 12.25,12.25 6.762,0 12.25,-5.488 12.25,-12.25 0,-6.762 -5.488,-12.25 -12.25,-12.25 z m 0,39.28 c -6.762,0 -12.25,5.49 -12.25,12.25 0,6.763 5.488,12.25 12.25,12.25 6.762,0 12.25,-5.487 12.25,-12.25 0,-6.76 -5.488,-12.25 -12.25,-12.25 z m 0,39.533 c -6.762,0 -12.25,5.488 -12.25,12.25 0,6.76 5.488,12.25 12.25,12.25 6.762,0 12.25,-5.49 12.25,-12.25 0,-6.762 -5.488,-12.25 -12.25,-12.25 z m 0.125,39.906 c -23.21,0.28 -46.19,25.77 -75.813,75.656 h 153 c -30.523,-51.003 -53.977,-75.936 -77.187,-75.656 z" />
  </g>
</svg>
