<?xml version="1.0" encoding="UTF-8" standalone="no"?>
<svg
   xmlns:dc="http://purl.org/dc/elements/1.1/"
   xmlns:cc="http://creativecommons.org/ns#"
   xmlns:rdf="http://www.w3.org/1999/02/22-rdf-syntax-ns#"
   xmlns:svg="http://www.w3.org/2000/svg"
   xmlns="http://www.w3.org/2000/svg"
   xmlns:sodipodi="http://sodipodi.sourceforge.net/DTD/sodipodi-0.dtd"
   xmlns:inkscape="http://www.inkscape.org/namespaces/inkscape"
   inkscape:version="1.0 (4035a4fb49, 2020-05-01)"
   sodipodi:docname="two-coins.svg"
   id="svg8"
   version="1.1"
   viewBox="0 0 512 512"
   style="height: 512px; width: 512px;">
  <metadata
     id="metadata14">
    <rdf:RDF>
      <cc:Work
         rdf:about="">
        <dc:format>image/svg+xml</dc:format>
        <dc:type
           rdf:resource="http://purl.org/dc/dcmitype/StillImage" />
      </cc:Work>
    </rdf:RDF>
  </metadata>
  <defs
     id="defs12" />
  <sodipodi:namedview
     inkscape:current-layer="svg8"
     inkscape:window-maximized="1"
     inkscape:window-y="-8"
     inkscape:window-x="-8"
     inkscape:cy="256"
     inkscape:cx="256"
     inkscape:zoom="1.4355469"
     showgrid="false"
     id="namedview10"
     inkscape:window-height="1137"
     inkscape:window-width="1920"
     inkscape:pageshadow="2"
     inkscape:pageopacity="0"
     guidetolerance="10"
     gridtolerance="10"
     objecttolerance="10"
     borderopacity="1"
     bordercolor="#666666"
     pagecolor="#ffffff" />
  <path
     style="fill:#ffffff"
     id="path2"
     fill-opacity="1"
     fill="#000"
     d="M0 0h512v512H0z" />
  <g
     id="g6"
     transform="translate(0,0)"
     style="touch-action:none;fill:#000000"
     class="">
    <path
       style="fill:#000000"
       id="path4"
       fill-opacity="1"
       fill="#fff"
       d="M264.4 95.01c-35.6-.06-80.2 11.19-124.2 34.09C96.27 152 61.45 182 41.01 211.3c-20.45 29.2-25.98 56.4-15.92 75.8 10.07 19.3 35.53 30.4 71.22 30.4 35.69.1 80.29-11.2 124.19-34 44-22.9 78.8-53 99.2-82.2 20.5-29.2 25.9-56.4 15.9-75.8-10.1-19.3-35.5-30.49-71.2-30.49zm91.9 70.29c-3.5 15.3-11.1 31-21.8 46.3-22.6 32.3-59.5 63.8-105.7 87.8-46.2 24.1-93.1 36.2-132.5 36.2-18.6 0-35.84-2.8-50.37-8.7l10.59 20.4c10.08 19.4 35.47 30.5 71.18 30.5 35.7 0 80.3-11.2 124.2-34.1 44-22.8 78.8-52.9 99.2-82.2 20.4-29.2 26-56.4 15.9-75.7zm28.8 16.8c11.2 26.7 2.2 59.2-19.2 89.7-18.9 27.1-47.8 53.4-83.6 75.4 11.1 1.2 22.7 1.8 34.5 1.8 49.5 0 94.3-10.6 125.9-27.1 31.7-16.5 49.1-38.1 49.1-59.9 0-21.8-17.4-43.4-49.1-59.9-16.1-8.4-35.7-15.3-57.6-20zm106.7 124.8c-10.2 11.9-24.2 22.4-40.7 31-35 18.2-82.2 29.1-134.3 29.1-21.2 0-41.6-1.8-60.7-5.2-23.2 11.7-46.5 20.4-68.9 26.1 1.2.7 2.4 1.3 3.7 2 31.6 16.5 76.4 27.1 125.9 27.1s94.3-10.6 125.9-27.1c31.7-16.5 49.1-38.1 49.1-59.9z" />
  </g>
</svg>
