<?xml version="1.0" encoding="UTF-8" standalone="no"?>
<svg
   xmlns:dc="http://purl.org/dc/elements/1.1/"
   xmlns:cc="http://creativecommons.org/ns#"
   xmlns:rdf="http://www.w3.org/1999/02/22-rdf-syntax-ns#"
   xmlns:svg="http://www.w3.org/2000/svg"
   xmlns="http://www.w3.org/2000/svg"
   xmlns:sodipodi="http://sodipodi.sourceforge.net/DTD/sodipodi-0.dtd"
   xmlns:inkscape="http://www.inkscape.org/namespaces/inkscape"
   inkscape:version="1.0 (4035a4fb49, 2020-05-01)"
   sodipodi:docname="weightred.svg"
   height="434"
   width="448"
   id="svg8"
   version="1.1"
   viewBox="0 0 448 434">
  <sodipodi:namedview
     inkscape:current-layer="svg8"
     inkscape:window-maximized="1"
     inkscape:window-y="-8"
     inkscape:window-x="-8"
     inkscape:cy="217"
     inkscape:cx="224"
     inkscape:zoom="1.6935484"
     showgrid="false"
     id="namedview7"
     inkscape:window-height="1137"
     inkscape:window-width="1920"
     inkscape:pageshadow="2"
     inkscape:pageopacity="0"
     guidetolerance="10"
     gridtolerance="10"
     objecttolerance="10"
     borderopacity="1"
     bordercolor="#666666"
     pagecolor="#ffffff" />
  <metadata
     id="metadata14">
    <rdf:RDF>
      <cc:Work
         rdf:about="">
        <dc:format>image/svg+xml</dc:format>
        <dc:type
           rdf:resource="http://purl.org/dc/dcmitype/StillImage" />
        <dc:title />
      </cc:Work>
    </rdf:RDF>
  </metadata>
  <defs
     id="defs12" />
  <g
     transform="translate(-32,-46)"
     id="g6"
     class=""
     style="fill:#cf000f;fill-opacity:1;stroke:#cf000f;stroke-opacity:1">
    <path
       id="path4"
       fill-opacity="1"
       fill="#ffffff"
       d="m 256,46 c -45.074,0 -82,36.926 -82,82 0,25.812 12.123,48.936 30.938,64 H 128 L 32,480 H 480 L 384,192 H 307.062 C 325.877,176.936 338,153.812 338,128 338,82.926 301.074,46 256,46 Z m 0,36 c 25.618,0 46,20.382 46,46 0,25.618 -20.382,46 -46,46 -25.618,0 -46,-20.382 -46,-46 0,-25.618 20.382,-46 46,-46 z"
       style="fill:#cf000f;fill-opacity:1;stroke:#cf000f;stroke-opacity:1" />
  </g>
</svg>
