<?xml version="1.0" encoding="UTF-8" standalone="no"?>
<svg
   xmlns:dc="http://purl.org/dc/elements/1.1/"
   xmlns:cc="http://creativecommons.org/ns#"
   xmlns:rdf="http://www.w3.org/1999/02/22-rdf-syntax-ns#"
   xmlns:svg="http://www.w3.org/2000/svg"
   xmlns="http://www.w3.org/2000/svg"
   height="464"
   width="480"
   id="svg8"
   version="1.1"
   viewBox="0 0 480 464">
  <metadata
     id="metadata14">
    <rdf:RDF>
      <cc:Work
         rdf:about="">
        <dc:format>image/svg+xml</dc:format>
        <dc:type
           rdf:resource="http://purl.org/dc/dcmitype/StillImage" />
        <dc:title></dc:title>
      </cc:Work>
    </rdf:RDF>
  </metadata>
  <defs
     id="defs12" />
  <path
     style="fill:#ffffff"
     id="path2"
     fill-opacity="1"
     fill="#000"
     d="M -16,-28 H 496 V 484 H -16 Z" />
  <g
     transform="translate(-16,-28)"
     id="g6"
     style="fill:#999999"
     class="">
    <path
       style="fill:#999999"
       id="path4"
       fill-opacity="1"
       fill="#fff"
       d="m 256,28 -32,128 c -32,-16 -64,-48 -96,-96 0,48 0,96 32,128 -32,17 -64,0 -96,-32 0,32 0,80 48,112 -32,16 -64,0 -80,-32 0,48 16,96 48,128 -16,16 -48,0 -64,-16 0,64 48,112 112,144 h 76.8 l 16.7,-68.6 -17.2,-86.1 -97.9,5 c 0,0 20.3,-75.2 34.9,-103.7 5,-9.6 7.2,-18 20,-18.3 11.3,0 20.4,9.8 20.4,21.9 0,12 -9.1,21.8 -20.4,21.8 -2.3,0 -4.6,-0.5 -6.6,-1.3 l -5.1,46.8 c 29.6,-8.9 56.9,-18.8 84,-30.9 0,-0.1 -0.1,-0.2 -0.1,-0.3 -6.2,-8.8 -10.4,-21.5 -10.4,-35.7 0,-14.1 4.1,-26.8 10.4,-35.7 6.1,-8.9 14.1,-13.7 22.5,-13.7 8.5,0 16.5,4.8 22.6,13.7 6.2,8.9 10.2,21.6 10.2,35.7 0,14.2 -4,26.9 -10.2,35.7 -0.1,0.3 -0.5,0.7 -0.6,0.9 27.3,12.1 56.1,20.6 84.3,30.3 l -5,-46.8 c -2.2,0.8 -4.3,1.3 -6.7,1.3 -11.2,0 -20.3,-9.8 -20.3,-21.8 0,-12.1 9.1,-21.9 20.3,-21.9 12.8,0.3 15.2,8.7 20,18.3 14.8,28.5 35,103.7 35,103.7 l -97.9,-5 -17.2,86.1 16.7,68.6 H 384 c 64,-32 112,-80 112,-144 -16,16 -48,32 -64,16 32,-32 48,-80 48,-128 -16,32 -48,48 -80,32 48,-32 48,-80 48,-112 -32,32 -64,48 -96,32 32,-32 32,-80 32,-128 -32,48 -64,80 -96,96 z" />
  </g>
</svg>
