<?xml version="1.0" encoding="UTF-8" standalone="no"?>
<svg
   xmlns:dc="http://purl.org/dc/elements/1.1/"
   xmlns:cc="http://creativecommons.org/ns#"
   xmlns:rdf="http://www.w3.org/1999/02/22-rdf-syntax-ns#"
   xmlns:svg="http://www.w3.org/2000/svg"
   xmlns="http://www.w3.org/2000/svg"
   id="svg8"
   version="1.1"
   viewBox="0 0 512 512"
   style="height: 512px; width: 512px;">
  <metadata
     id="metadata14">
    <rdf:RDF>
      <cc:Work
         rdf:about="">
        <dc:format>image/svg+xml</dc:format>
        <dc:type
           rdf:resource="http://purl.org/dc/dcmitype/StillImage" />
        <dc:title></dc:title>
      </cc:Work>
    </rdf:RDF>
  </metadata>
  <defs
     id="defs12" />
  <path
     id="path2"
     fill-opacity="1"
     fill="#000"
     d="M0 0h512v512H0z" />
  <g
     id="g6"
     transform="translate(0,0)"
     style="touch-action: none;"
     class="">
    <path
       style="fill:#ff2a2a;stroke-width:0.980315"
       id="path4"
       fill-opacity="1"
       fill="#fff"
       d="m 255.92068,16.071611 -58.40464,33.848091 0.10728,67.491728 44.28801,25.47284 c -12.3829,1.526 -24.15547,5.0351 -34.97996,10.19623 l 19.19245,33.10494 c -5.67424,2.43414 -10.97376,5.53043 -15.83643,9.2086 l -19.19168,-33.1061 c -10.04811,6.96776 -18.9365,15.49864 -26.27533,25.26158 l -0.076,-51.05663 -58.48082,-33.64823 -58.40936,33.82104 0.106874,67.48981 58.480616,33.64726 44.26922,-25.62599 c -4.52083,10.84764 -7.39182,22.56339 -8.34956,34.8059 l 38.32088,-0.0365 c -0.35644,3.00148 -0.57499,6.0389 -0.56979,9.13915 0.005,3.10739 0.19942,6.17052 0.566,9.17922 l -38.32047,0.0383 c 1.01328,12.57364 4.07128,24.58202 8.83684,35.67265 l -44.68511,-25.73444 -58.404225,33.85 0.100782,67.46105 58.486913,33.67699 58.41072,-33.81932 -0.0911,-51.74287 c 7.37163,9.75014 16.28288,18.28642 26.35439,25.23225 l 19.08763,-33.19687 c 4.86277,3.65685 10.17414,6.75374 15.84448,9.17039 l -19.06152,33.15927 c 10.70909,5.07325 22.34103,8.54218 34.57042,10.05785 l -44.32316,25.66947 0.10804,67.49057 58.48732,33.67891 58.40423,-33.85001 -0.10058,-67.46008 -44.33093,-25.52888 c 12.36371,-1.52195 24.11088,-5.03268 34.92014,-10.18056 l -19.14992,-33.05576 c 5.68146,-2.42363 11.00371,-5.51673 15.87148,-9.18496 l 19.14992,33.05081 c 10.0917,-6.98902 18.98731,-15.56151 26.34852,-25.37027 l 0.061,51.15602 58.51131,33.64077 58.38024,-33.81186 -0.10708,-67.49078 -58.48082,-33.64822 -44.37707,25.71296 c 4.55113,-10.88912 7.4638,-22.62573 8.42179,-34.91438 l -38.19546,0.0419 c 0.35644,-3.00147 0.56828,-6.07054 0.5637,-9.16792 -0.006,-3.10506 -0.22408,-6.14025 -0.58965,-9.14415 l 38.1945,-0.0418 c -1.02268,-12.58969 -4.09992,-24.599 -8.87519,-35.6976 l 44.81778,25.76948 58.37834,-33.84453 -0.0711,-67.46734 -58.51609,-33.67281 -58.38155,33.81515 0.0676,51.77889 c -7.38327,-9.77674 -16.32325,-18.32097 -26.42604,-25.27721 l -19.03945,33.12154 c -4.88105,-3.65798 -10.21674,-6.74673 -15.90585,-9.15738 l 19.06822,-33.12764 c -10.69085,-5.05807 -22.30049,-8.49264 -34.49857,-10.01193 l 44.32315,-25.66947 -0.10803,-67.49057 -58.48732,-33.67891 z m -22.9184,194.617449 50.57836,2.69077 22.96374,45.14564 -27.61503,42.45296 -50.57932,-2.69058 -22.96449,-45.14447 27.61502,-42.45295 z" />
  </g>
</svg>
